<svg width="30" height="30" viewBox="0 0 30 30" fill="none" xmlns="http://www.w3.org/2000/svg">
<path fill-rule="evenodd" clip-rule="evenodd" d="M0 9C0 4.02944 4.02944 0 9 0H21C25.9705 0 30 4.02944 30 9V21C30 25.9705 25.9705 30 21 30H9C4.02944 30 0 25.9705 0 21V9ZM9 3C5.6863 3 3 5.6863 3 9V21C3 24.3137 5.6863 27 9 27H21C24.3137 27 27 24.3137 27 21V9C27 5.6863 24.3137 3 21 3H9Z" fill="#0B0B0B"/>
<path fill-rule="evenodd" clip-rule="evenodd" d="M15 10.5C12.5147 10.5 10.5 12.5147 10.5 15C10.5 17.4852 12.5147 19.5 15 19.5C17.4853 19.5 19.5 17.4853 19.5 15C19.5 12.5147 17.4853 10.5 15 10.5ZM7.5 15C7.5 10.8579 10.8579 7.5 15 7.5C19.1421 7.5 22.5 10.8579 22.5 15C22.5 19.1421 19.1421 22.5 15 22.5C10.8579 22.5 7.5 19.1421 7.5 15Z" fill="#0B0B0B"/>
<path d="M22.8461 9.92338C23.9932 9.92338 24.9231 8.99351 24.9231 7.84645C24.9231 6.6994 23.9932 5.76953 22.8461 5.76953C21.6991 5.76953 20.7692 6.6994 20.7692 7.84645C20.7692 8.99351 21.6991 9.92338 22.8461 9.92338Z" fill="#0B0B0B"/>
</svg>
