<svg width="27" height="24" viewBox="0 0 27 24" fill="none" xmlns="http://www.w3.org/2000/svg">
<path d="M6.21558 2.66796C6.21523 3.3752 5.93394 4.05332 5.4336 4.55316C4.93326 5.053 4.25486 5.33361 3.54762 5.33326C2.84039 5.33291 2.16226 5.05162 1.66242 4.55128C1.16258 4.05094 0.881971 3.37253 0.882325 2.6653C0.882678 1.95806 1.16396 1.27994 1.66431 0.780095C2.16465 0.280255 2.84305 -0.000353283 3.55029 3.33811e-07C4.25752 0.000353951 4.93565 0.281641 5.43549 0.781981C5.93533 1.28232 6.21594 1.96073 6.21558 2.66796ZM6.29558 7.3079H0.962323V24.001H6.29558V7.3079ZM14.7221 7.3079H9.41554V24.001H14.6688V15.2411C14.6688 10.3612 21.0287 9.90786 21.0287 15.2411V24.001H26.2953V13.4278C26.2953 5.20126 16.8821 5.50792 14.6688 9.54787L14.7221 7.3079Z" fill="#0B0B0B"/>
</svg>
