<svg xmlns="http://www.w3.org/2000/svg" width="24" height="24" viewBox="0 0 24 24" fill="none">
    <path d="M21.4459 5.90989C18.0685 0.677548 11.1522 -0.872776 5.8033 2.37321C0.583714 5.61921 -1.0969 12.6926 2.28048 17.9088L2.5552 18.3286L1.42402 22.5597L5.65787 21.4293L6.07802 21.7038C7.90407 22.6889 9.89172 23.2541 11.8632 23.2541C13.9801 23.2541 16.097 22.6889 17.9231 21.5585C23.1427 18.1671 24.694 11.2391 21.4459 5.87759V5.90989ZM18.4887 16.7945C17.9231 17.6342 17.2121 18.1994 16.2263 18.3448C15.6607 18.3448 14.9497 18.6193 12.1379 17.505C9.74628 16.3746 7.75863 14.5336 6.35274 12.418C5.51243 11.4329 5.07612 10.1571 4.94684 8.88135C4.94684 7.7509 5.36699 6.7658 6.07802 6.05523C6.35274 5.7807 6.64361 5.63535 6.91833 5.63535H7.62935C7.90407 5.63535 8.19494 5.63535 8.34038 6.20058C8.6151 6.91114 9.32612 8.60681 9.32612 8.75215C9.47156 8.8975 9.40692 9.97949 8.76053 10.5932C8.40502 10.9969 8.34038 11.013 8.48582 11.3037C9.05141 12.1435 9.76244 12.9994 10.4573 13.71C11.2976 14.4205 12.1541 14.9857 13.1398 15.4056C13.4145 15.551 13.7054 15.551 13.8508 15.2603C13.9963 14.9857 14.6912 14.2752 14.982 13.9845C15.2567 13.71 15.4022 13.71 15.6931 13.8392L17.9554 14.9696C18.2301 15.1149 18.521 15.2441 18.6664 15.3895C18.8119 15.8094 18.8119 16.3746 18.521 16.7945H18.4887Z" fill="#5FE931"/>
</svg>
