<svg width="23" height="24" viewBox="0 0 23 24" fill="none" xmlns="http://www.w3.org/2000/svg">
<path d="M21.1648 5.90542C17.7686 0.640425 10.8136 -0.919575 5.43483 2.34668C0.186077 5.61293 -1.50392 12.7304 1.89233 17.9792L2.16858 18.4017L1.03108 22.6592L5.28858 21.5217L5.71108 21.7979C7.54733 22.7892 9.54608 23.3579 11.5286 23.3579C13.6573 23.3579 15.7861 22.7892 17.6223 21.6517C22.8711 18.2392 24.4311 11.2679 21.1648 5.87292V5.90542ZM18.1911 16.8579C17.6223 17.7029 16.9073 18.2717 15.9161 18.4179C15.3473 18.4179 14.6323 18.6942 11.8048 17.5729C9.39983 16.4354 7.40108 14.5829 5.98733 12.4542C5.14233 11.4629 4.70358 10.1792 4.57358 8.89543C4.57358 7.75793 4.99608 6.76667 5.71108 6.05167C5.98733 5.77542 6.27983 5.62918 6.55608 5.62918H7.27108C7.54733 5.62918 7.83983 5.62918 7.98608 6.19793C8.26233 6.91293 8.97733 8.61918 8.97733 8.76543C9.12358 8.91168 9.05858 10.0004 8.40858 10.6179C8.05108 11.0242 7.98608 11.0404 8.13233 11.3329C8.70108 12.1779 9.41608 13.0392 10.1148 13.7542C10.9598 14.4692 11.8211 15.0379 12.8123 15.4604C13.0886 15.6067 13.3811 15.6067 13.5273 15.3142C13.6736 15.0379 14.3723 14.3229 14.6648 14.0304C14.9411 13.7542 15.0873 13.7542 15.3798 13.8842L17.6548 15.0217C17.9311 15.1679 18.2236 15.2979 18.3698 15.4442C18.5161 15.8667 18.5161 16.4354 18.2236 16.8579H18.1911Z" fill="black"/>
</svg>
