<svg width="27" height="23" viewBox="0 0 27 23" fill="none" xmlns="http://www.w3.org/2000/svg">
<path fill-rule="evenodd" clip-rule="evenodd" d="M13.5 0L23.3089 0.278232C25.0421 0.327394 26.4757 1.64737 26.6728 3.37559C27.1091 7.20111 27.1091 11.0641 26.6728 14.8896C26.4757 16.6178 25.0421 17.9378 23.3089 17.987L15.1857 18.2174V20.9706H20.2428C20.8014 20.9706 21.2542 21.4249 21.2542 21.9853C21.2542 22.5457 20.8014 23 20.2428 23H6.75721C6.19862 23 5.74579 22.5457 5.74579 21.9853C5.74579 21.4249 6.19862 20.9706 6.75721 20.9706H11.8143V18.2174L3.69106 17.987C1.95787 17.9378 0.52432 16.6178 0.327221 14.8896C-0.109074 11.0641 -0.109074 7.20111 0.327221 3.37559C0.52432 1.64737 1.95787 0.327394 3.69106 0.278232L13.5 0ZM4.06009 13.5296C3.5015 13.5296 3.04867 13.9839 3.04867 14.5443C3.04867 15.1047 3.5015 15.559 4.06009 15.559H22.94C23.4985 15.559 23.9514 15.1047 23.9514 14.5443C23.9514 13.9839 23.4985 13.5296 22.94 13.5296H4.06009Z" fill="black"/>
<path fill-rule="evenodd" clip-rule="evenodd" d="M13.5 0L23.3089 0.278232C25.0421 0.327394 26.4757 1.64737 26.6728 3.37559C27.1091 7.20111 27.1091 11.0641 26.6728 14.8896C26.4757 16.6178 25.0421 17.9378 23.3089 17.987L15.1857 18.2174V20.9706H20.2428C20.8014 20.9706 21.2542 21.4249 21.2542 21.9853C21.2542 22.5457 20.8014 23 20.2428 23H6.75721C6.19862 23 5.74579 22.5457 5.74579 21.9853C5.74579 21.4249 6.19862 20.9706 6.75721 20.9706H11.8143V18.2174L3.69106 17.987C1.95787 17.9378 0.52432 16.6178 0.327221 14.8896C-0.109074 11.0641 -0.109074 7.20111 0.327221 3.37559C0.52432 1.64737 1.95787 0.327394 3.69106 0.278232L13.5 0ZM4.06009 13.5296C3.5015 13.5296 3.04867 13.9839 3.04867 14.5443C3.04867 15.1047 3.5015 15.559 4.06009 15.559H22.94C23.4985 15.559 23.9514 15.1047 23.9514 14.5443C23.9514 13.9839 23.4985 13.5296 22.94 13.5296H4.06009Z" fill="white" fill-opacity="0.57"/>
<defs>
</defs>
</svg>
