<svg width="38" height="23" viewBox="0 0 38 23" fill="none" xmlns="http://www.w3.org/2000/svg">
<path fill-rule="evenodd" clip-rule="evenodd" d="M13.5 0L23.3089 0.278232C25.0421 0.327394 26.4757 1.64737 26.6728 3.37559C27.1091 7.20111 27.1091 11.0641 26.6728 14.8896C26.4757 16.6178 25.0421 17.9378 23.3089 17.987L15.1857 18.2174V20.9706H20.2428C20.8014 20.9706 21.2542 21.4249 21.2542 21.9853C21.2542 22.5457 20.8014 23 20.2428 23H6.75721C6.19862 23 5.74579 22.5457 5.74579 21.9853C5.74579 21.4249 6.19862 20.9706 6.75721 20.9706H11.8143V18.2174L3.69106 17.987C1.95787 17.9378 0.52432 16.6178 0.327221 14.8896C-0.109074 11.0641 -0.109074 7.20111 0.327221 3.37559C0.52432 1.64737 1.95787 0.327394 3.69106 0.278232L13.5 0ZM4.06009 13.5296C3.5015 13.5296 3.04867 13.9839 3.04867 14.5443C3.04867 15.1047 3.5015 15.559 4.06009 15.559H22.94C23.4985 15.559 23.9514 15.1047 23.9514 14.5443C23.9514 13.9839 23.4985 13.5296 22.94 13.5296H4.06009Z" fill="white" fill-opacity="0.57"/>
<path fill-rule="evenodd" clip-rule="evenodd" d="M38 15.9005L37.9963 16.0507L38 16.2093L37.9965 16.3605L38 16.518L37.8882 21.6144C37.8742 22.2486 37.4113 22.7738 36.8061 22.8421C34.9408 23.0526 33.0592 23.0526 31.1939 22.8421C30.5886 22.7738 30.1257 22.2486 30.1118 21.6144L30 16.518L30.0035 16.3594L30 16.2093L30.0037 16.0514L30 15.9005L30.1 11.7995C30.1006 11.7723 30.1019 11.7454 30.1037 11.7186L30.1103 11.4332C30.1254 10.7807 30.6036 10.2416 31.2267 10.1748C31.2786 10.1693 31.3304 10.1639 31.3823 10.1586C31.4527 10.1416 31.5248 10.1291 31.5984 10.1217C33.1957 9.95944 34.8043 9.95944 36.4016 10.1217C36.4752 10.1291 36.5473 10.1416 36.6177 10.1586C36.6696 10.1639 36.7215 10.1693 36.7733 10.1748C37.3964 10.2416 37.8746 10.7807 37.8897 11.4332L37.8963 11.7192C37.8981 11.7458 37.8994 11.7726 37.9 11.7995L38 15.9005ZM36.3703 20.0686C36.6157 20.0686 36.8147 19.8612 36.8147 19.6055C36.8147 19.3497 36.6157 19.1423 36.3703 19.1423H31.6297C31.3843 19.1423 31.1853 19.3497 31.1853 19.6055C31.1853 19.8612 31.3843 20.0686 31.6297 20.0686H36.3703ZM34 22.5077C34.4909 22.5077 34.8889 22.093 34.8889 21.5815C34.8889 21.0699 34.4909 20.6552 34 20.6552C33.5091 20.6552 33.1111 21.0699 33.1111 21.5815C33.1111 22.093 33.5091 22.5077 34 22.5077Z" fill="white" fill-opacity="0.57"/>
</svg>
