<svg width="28" height="21" viewBox="0 0 28 21" fill="none" xmlns="http://www.w3.org/2000/svg">
<path d="M0 4C0 1.79086 1.79086 0 4 0H24C26.2091 0 28 1.79086 28 4V17C28 19.2091 26.2091 21 24 21H4C1.79086 21 0 19.2091 0 17V4Z" fill="white"/>
<path d="M3.896 11.22V9.4L9.636 6.656L10.336 8.126L5.674 10.31L10.336 12.494L9.636 13.964L3.896 11.22ZM11.3738 15.224L15.2938 4.528L16.9178 5.116L12.9978 15.812L11.3738 15.224ZM17.9474 12.494L22.6094 10.31L17.9474 8.126L18.6474 6.656L24.3874 9.4V11.22L18.6474 13.964L17.9474 12.494Z" fill="#1C1321"/>
</svg>
