<svg width="15" height="23" viewBox="0 0 15 23" fill="none" xmlns="http://www.w3.org/2000/svg">
<path fill-rule="evenodd" clip-rule="evenodd" d="M15 10.4394L14.9931 10.7051L15 10.9856L14.9935 11.2532L14.9999 11.5319L14.7903 20.5485C14.7642 21.6706 13.8963 22.5998 12.7614 22.7207C9.26402 23.0931 5.73595 23.0931 2.23855 22.7207C1.10371 22.5998 0.235757 21.6706 0.209669 20.5485L3.55152e-05 11.5319L0.00655815 11.2513L5.56725e-05 10.9856L0.00689345 10.7062L0 10.4394L0.18744 3.18364C0.188679 3.13569 0.19104 3.088 0.194499 3.0406L0.206856 2.53568C0.235109 1.38124 1.13183 0.427478 2.30007 0.309298C2.3973 0.299463 2.49455 0.289904 2.59182 0.280622C2.72374 0.250475 2.85901 0.228493 2.99708 0.215261C5.99193 -0.0717537 9.00807 -0.0717536 12.0029 0.215261C12.141 0.228492 12.2762 0.250471 12.4081 0.280613C12.5054 0.289898 12.6027 0.29946 12.7 0.309298C13.8682 0.427479 14.7649 1.38124 14.7932 2.53569L14.8056 3.04175C14.809 3.08877 14.8113 3.13608 14.8126 3.18364L15 10.4394ZM11.9443 17.8136C12.4045 17.8136 12.7776 17.4468 12.7776 16.9943C12.7776 16.5417 12.4045 16.1749 11.9443 16.1749H3.05572C2.5955 16.1749 2.22241 16.5417 2.22241 16.9943C2.22241 17.4468 2.5955 17.8136 3.05572 17.8136H11.9443ZM7.5 22.1291C8.42044 22.1291 9.16661 21.3954 9.16661 20.4903C9.16661 19.5853 8.42044 18.8516 7.5 18.8516C6.57956 18.8516 5.8334 19.5853 5.8334 20.4903C5.8334 21.3954 6.57956 22.1291 7.5 22.1291Z" fill="white" fill-opacity="0.57"/>
</svg>
