<svg width="31" height="29" viewBox="0 0 31 29" fill="none" xmlns="http://www.w3.org/2000/svg">
<path fill-rule="evenodd" clip-rule="evenodd" d="M9.14741 3.09073L15.311 0L21.4151 3.09073L15.311 5.93086L9.14741 3.09073ZM21.5932 4.87269L21.5933 11.1376L19.8654 11.96L22.3041 16.0947L24.3044 15.0917L30.4085 18.1824L24.3044 21.0225L18.1408 18.1824L20.7295 16.8843L18.2723 12.7183L16.1915 13.7086L16.1915 7.3786L21.5932 4.87269ZM9.06593 11.1688L9.06593 4.90389L14.4677 7.4098L14.4677 13.7398L12.3142 12.7149L9.87541 16.8924L12.423 18.1824L6.31897 21.0225L0.155349 18.1824L6.31897 15.0916L8.30436 16.0969L10.7213 11.9567L9.06593 11.1688ZM30.5874 26.2295L30.5874 19.9645L25.1856 22.4704L25.1856 28.8005L30.5874 26.2295ZM18.0591 24.1133L18.0591 26.2606L23.4609 28.8316L23.4609 22.5015L18.0591 19.9956L18.0591 22.4426H12.602L12.602 19.9645L7.20027 22.4704L7.20027 28.8004L12.602 26.2294L12.602 24.1133H18.0591ZM0.0737376 26.2605L0.0737438 19.9956L5.47551 22.5015L5.47552 28.8315L0.0737376 26.2605Z" fill="#D9D9D9"/>
<path fill-rule="evenodd" clip-rule="evenodd" d="M9.14741 3.09073L15.311 0L21.4151 3.09073L15.311 5.93086L9.14741 3.09073ZM21.5932 4.87269L21.5933 11.1376L19.8654 11.96L22.3041 16.0947L24.3044 15.0917L30.4085 18.1824L24.3044 21.0225L18.1408 18.1824L20.7295 16.8843L18.2723 12.7183L16.1915 13.7086L16.1915 7.3786L21.5932 4.87269ZM9.06593 11.1688L9.06593 4.90389L14.4677 7.4098L14.4677 13.7398L12.3142 12.7149L9.87541 16.8924L12.423 18.1824L6.31897 21.0225L0.155349 18.1824L6.31897 15.0916L8.30436 16.0969L10.7213 11.9567L9.06593 11.1688ZM30.5874 26.2295L30.5874 19.9645L25.1856 22.4704L25.1856 28.8005L30.5874 26.2295ZM18.0591 24.1133L18.0591 26.2606L23.4609 28.8316L23.4609 22.5015L18.0591 19.9956L18.0591 22.4426H12.602L12.602 19.9645L7.20027 22.4704L7.20027 28.8004L12.602 26.2294L12.602 24.1133H18.0591ZM0.0737376 26.2605L0.0737438 19.9956L5.47551 22.5015L5.47552 28.8315L0.0737376 26.2605Z" fill="url(#paint0_linear_288_3103)"/>
<defs>
<linearGradient id="paint0_linear_288_3103" x1="0.0742185" y1="14.4158" x2="30.5869" y2="14.4158" gradientUnits="userSpaceOnUse">
<stop stop-color="#62ED2E"/>
<stop offset="1" stop-color="#2AA66A"/>
</linearGradient>
</defs>
</svg>
