<svg width="33" height="31" viewBox="0 0 33 31" fill="none" xmlns="http://www.w3.org/2000/svg">
    <path d="M19.5815 23.2287L19.4495 23.1573C19.1388 22.9743 18.8861 22.7065 18.7208 22.3849C18.5554 22.0634 18.4842 21.7013 18.5154 21.3406C18.5154 21.1467 18.5154 20.9528 18.5154 20.7589C18.5034 20.3993 18.5922 20.0435 18.7717 19.7322C18.9513 19.4209 19.2143 19.1666 19.5308 18.9984L19.6628 18.932C19.7768 18.8756 19.8656 18.7783 19.9116 18.6592C19.9577 18.5402 19.9577 18.4081 19.9115 18.2891L19.0891 16.1152C19.0442 15.9953 18.9562 15.8967 18.8424 15.839C18.7286 15.7814 18.5973 15.7688 18.4748 15.8039L18.3783 15.8397C18.0276 15.9313 17.6582 15.9209 17.313 15.8098C16.9679 15.6987 16.6613 15.4914 16.4288 15.212C16.3018 15.064 16.1698 14.9211 16.0328 14.7884C15.7695 14.5412 15.5819 14.2235 15.492 13.8728C15.402 13.5221 15.4135 13.1529 15.5251 12.8085L15.5708 12.6656C15.6125 12.5454 15.6081 12.4139 15.5583 12.2968C15.5085 12.1797 15.417 12.0856 15.3017 12.0328L13.1998 11.0837C13.0838 11.032 12.9528 11.0259 12.8325 11.0665C12.7122 11.1071 12.6114 11.1915 12.55 11.3031L12.484 11.4256C12.3008 11.7404 12.0319 11.996 11.709 12.1624C11.3861 12.3287 11.0226 12.3989 10.6614 12.3645C10.4634 12.3645 10.2755 12.3645 10.0775 12.3645C9.71529 12.3737 9.3579 12.2792 9.04694 12.0922C8.73597 11.9053 8.48421 11.6334 8.32092 11.3082L8.25492 11.1807C8.20055 11.0642 8.10444 10.9727 7.98583 10.9245C7.86722 10.8762 7.73486 10.8748 7.61523 10.9204L5.45246 11.7573C5.33316 11.8023 5.23508 11.8909 5.1777 12.0053C5.12033 12.1196 5.10786 12.2515 5.14277 12.3747L5.18338 12.5074C5.27426 12.8575 5.2648 13.2263 5.1561 13.5712C5.04741 13.9161 4.84391 14.2231 4.56908 14.4568C4.42185 14.5843 4.27969 14.7221 4.14769 14.8599C3.89894 15.1253 3.58026 15.3142 3.22881 15.4045C2.87736 15.4949 2.5076 15.483 2.16262 15.3702L2.03062 15.3294C1.91112 15.291 1.7817 15.2984 1.66733 15.3502C1.55296 15.402 1.46173 15.4946 1.41123 15.61L0.446615 17.7175C0.388771 17.8358 0.378663 17.9719 0.418406 18.0975C0.45815 18.223 0.544666 18.3282 0.659846 18.3911L0.791846 18.4677C1.09926 18.6479 1.34994 18.9114 1.51516 19.2282C1.68038 19.545 1.75346 19.9022 1.726 20.2588C1.726 20.4527 1.726 20.6466 1.726 20.8457C1.73899 21.2061 1.65061 21.563 1.47101 21.8753C1.29142 22.1876 1.02787 22.4427 0.710615 22.6113L0.578615 22.6776C0.465806 22.734 0.377869 22.8305 0.331894 22.9484C0.285919 23.0662 0.285189 23.1971 0.329846 23.3155L1.15231 25.4945C1.1981 25.6134 1.28656 25.7109 1.40027 25.7675C1.51397 25.8242 1.64468 25.836 1.76662 25.8006L1.90369 25.7649C2.25443 25.6733 2.62384 25.6836 2.96896 25.7948C3.31408 25.9059 3.62072 26.1132 3.85323 26.3926C3.98015 26.5355 4.11215 26.6783 4.24923 26.8161C4.51206 27.0626 4.69945 27.3794 4.78938 27.7292C4.87931 28.079 4.86805 28.4474 4.75692 28.791L4.71123 28.9338C4.66946 29.054 4.6739 29.1856 4.72369 29.3027C4.77347 29.4198 4.865 29.5139 4.98031 29.5666L7.10246 30.5209C7.21906 30.5721 7.35057 30.5775 7.47092 30.5359C7.59127 30.4943 7.6917 30.4088 7.75231 30.2963L7.81831 30.179C8.00099 29.8657 8.26814 29.6109 8.58887 29.4438C8.9096 29.2767 9.27082 29.2043 9.63077 29.2349C9.81861 29.2349 10.0115 29.2349 10.2095 29.2349C10.5711 29.2259 10.9279 29.3199 11.2387 29.5058C11.5495 29.6918 11.8017 29.9623 11.9662 30.2861L12.0322 30.4188C12.075 30.502 12.1399 30.5717 12.2196 30.6203C12.2993 30.669 12.3908 30.6946 12.484 30.6944C12.5446 30.6949 12.6048 30.6845 12.6617 30.6637L14.8295 29.832C14.9488 29.7869 15.0469 29.6984 15.1043 29.584C15.1617 29.4696 15.1741 29.3377 15.1392 29.2145L15.058 29.1073C14.9673 28.756 14.9773 28.3861 15.0869 28.0402C15.1965 27.6944 15.4012 27.3868 15.6774 27.1529C15.8246 27.0253 15.9668 26.8927 16.0988 26.7549C16.3475 26.4895 16.6662 26.3006 17.0177 26.2103C17.3691 26.1199 17.7389 26.1318 18.0838 26.2446L18.2209 26.2905C18.3398 26.3293 18.4687 26.3226 18.583 26.2717C18.6973 26.2209 18.7889 26.1295 18.8403 26.015L19.7998 23.8819C19.8512 23.7653 19.8573 23.6336 19.8169 23.5127C19.7765 23.3918 19.6925 23.2905 19.5815 23.2287ZM14.0426 22.5705C13.7534 23.2193 13.3095 23.7864 12.7501 24.2215C12.1907 24.6566 11.5332 24.9463 10.8358 25.0649C10.1384 25.1836 9.42264 25.1274 8.75197 24.9015C8.08131 24.6756 7.47643 24.2869 6.99096 23.7699C6.50548 23.2529 6.15439 22.6234 5.9688 21.9374C5.78321 21.2514 5.76885 20.5299 5.927 19.8369C6.08514 19.144 6.41091 18.501 6.87542 17.9648C7.33994 17.4287 7.92886 17.016 8.59 16.7633C9.38467 16.4596 10.2511 16.3995 11.0797 16.5905C11.9084 16.7816 12.6621 17.2152 13.2456 17.8367C13.8292 18.4582 14.2163 19.2396 14.3582 20.0821C14.5 20.9247 14.3902 21.7906 14.0426 22.5705Z" fill="white" fill-opacity="0.57"/>
    <path d="M13.8243 8.0526L13.7431 8.09342C13.6293 8.1489 13.5403 8.24502 13.4933 8.36299C13.4464 8.48096 13.4449 8.61229 13.4892 8.73129L14.0274 10.1397C14.0721 10.2585 14.1594 10.3562 14.2721 10.4138C14.3847 10.4714 14.5147 10.4846 14.6366 10.451L14.7229 10.4255C14.917 10.3748 15.1215 10.3811 15.3122 10.4434C15.503 10.5058 15.6719 10.6218 15.7992 10.7776C15.8855 10.8745 15.9769 10.9664 16.0683 11.0582C16.2164 11.1926 16.3219 11.3678 16.3716 11.562C16.4212 11.7562 16.4129 11.9608 16.3475 12.1503L16.3171 12.2421C16.2756 12.3629 16.2808 12.495 16.3316 12.6122C16.3823 12.7293 16.475 12.8231 16.5912 12.8749L17.962 13.4873C18.0756 13.5406 18.2049 13.5498 18.3249 13.5131C18.4449 13.4763 18.5471 13.3962 18.6118 13.2882L18.6524 13.2117C18.7562 13.0387 18.9068 12.8989 19.0865 12.8086C19.2663 12.7182 19.4679 12.6811 19.6678 12.7014C19.7947 12.7014 19.9014 12.7014 20.0587 12.7014C20.258 12.6988 20.4541 12.7524 20.6246 12.8562C20.7951 12.9599 20.9332 13.1096 21.0234 13.2882L21.064 13.375C21.1069 13.4582 21.1717 13.5279 21.2514 13.5765C21.3311 13.6251 21.4226 13.6507 21.5158 13.6505C21.578 13.6504 21.6397 13.64 21.6986 13.6199L23.0948 13.079C23.2129 13.034 23.3102 12.9463 23.3675 12.8331C23.4247 12.7198 23.4379 12.5892 23.4044 12.4667L23.3791 12.3748C23.3285 12.1809 23.3341 11.9766 23.3953 11.7858C23.4565 11.595 23.5706 11.4258 23.7243 11.2981C23.824 11.2133 23.9189 11.123 24.0086 11.0276C24.1449 10.8793 24.3205 10.7732 24.5148 10.7217C24.709 10.6701 24.9138 10.6754 25.1052 10.7368L25.1966 10.7623C25.3155 10.801 25.4444 10.7943 25.5587 10.7435C25.673 10.6926 25.7646 10.6012 25.816 10.4867L26.4303 9.11402C26.4821 8.99801 26.489 8.86674 26.4495 8.74592C26.4101 8.6251 26.3272 8.52344 26.2171 8.46084L26.1358 8.41491C25.9637 8.31058 25.8246 8.15928 25.7348 7.9786C25.6449 7.79792 25.6079 7.5953 25.6281 7.39432C25.6281 7.26164 25.6281 7.13407 25.6281 7.00649C25.621 6.80585 25.6707 6.60729 25.7713 6.43386C25.872 6.26044 26.0195 6.11926 26.1967 6.02673L26.2831 5.9859C26.3959 5.92955 26.4838 5.83306 26.5298 5.71517C26.5758 5.59728 26.5765 5.46643 26.5318 5.34803L26.0038 3.94472C25.959 3.82367 25.8701 3.72423 25.7551 3.66646C25.6402 3.60869 25.5077 3.59689 25.3844 3.63344L25.2931 3.65895C25.0989 3.70961 24.8944 3.70338 24.7037 3.64099C24.513 3.5786 24.344 3.46265 24.2167 3.30685C24.1304 3.20989 24.0441 3.11804 23.9527 3.02619C23.8064 2.89055 23.7019 2.71558 23.6515 2.52202C23.6011 2.32847 23.607 2.12445 23.6684 1.93415L23.6989 1.8474C23.7421 1.72656 23.7384 1.59377 23.6886 1.47554C23.6387 1.3573 23.5463 1.26232 23.4298 1.20953L22.0591 0.597179C21.9425 0.544025 21.8102 0.537099 21.6888 0.577787C21.5673 0.618476 21.4657 0.703776 21.4041 0.816606L21.3686 0.89315C21.2657 1.067 21.1153 1.2075 20.9354 1.29796C20.7554 1.38842 20.5533 1.42503 20.3532 1.40345C20.2231 1.39335 20.0924 1.39335 19.9623 1.40345C19.7617 1.40904 19.5637 1.35736 19.3911 1.25439C19.2186 1.15142 19.0786 1.00139 18.9875 0.821709L18.9469 0.734959C18.89 0.622487 18.7936 0.535206 18.6764 0.48997C18.5592 0.444733 18.4295 0.44475 18.3123 0.490017L16.9314 1.04114C16.8141 1.0871 16.718 1.1752 16.6617 1.28835C16.6054 1.4015 16.593 1.53163 16.6267 1.65349V1.74534C16.6749 1.93932 16.668 2.14295 16.607 2.33323C16.546 2.5235 16.4333 2.69283 16.2815 2.82207C16.1807 2.9056 16.0857 2.99596 15.9972 3.09253C15.8592 3.23818 15.6828 3.34142 15.4887 3.3902C15.2945 3.43899 15.0906 3.43132 14.9006 3.36809H14.8092C14.6996 3.33212 14.581 3.33476 14.473 3.37557C14.365 3.41638 14.2741 3.49293 14.2152 3.59262L13.6009 4.96531C13.5442 5.08239 13.5341 5.21684 13.5728 5.34112C13.6115 5.4654 13.6961 5.57011 13.8091 5.6338L13.8954 5.67973C14.0688 5.78266 14.2089 5.93371 14.299 6.11476C14.389 6.2958 14.4252 6.49913 14.4031 6.70032C14.4031 6.82789 14.4031 6.96057 14.4031 7.09324C14.4054 7.29153 14.3524 7.48651 14.2501 7.65607C14.1478 7.82563 14.0003 7.963 13.8243 8.0526ZM17.3172 5.82261C17.5355 5.33449 17.8807 4.91458 18.3165 4.60713C18.7523 4.29969 19.2625 4.11609 19.7934 4.07568C20.3243 4.03528 20.8563 4.13956 21.3331 4.37755C21.81 4.61553 22.2142 4.9784 22.5031 5.42792C22.792 5.87745 22.9549 6.39697 22.9747 6.93176C22.9945 7.46655 22.8704 7.9968 22.6154 8.46663C22.3605 8.93646 21.9842 9.32848 21.5262 9.60137C21.0682 9.87427 20.5455 10.0179 20.0131 10.0172C19.5898 10.0189 19.171 9.93016 18.7844 9.75699C18.0688 9.4327 17.5104 8.83641 17.2315 8.09887C16.9527 7.36134 16.9762 6.54275 17.2969 5.82261H17.3172Z" fill="white" fill-opacity="0.57"/>
    <path d="M32.3907 25.5355L32.3095 25.4895C32.1374 25.3852 31.9983 25.2339 31.9084 25.0532C31.8185 24.8726 31.7816 24.6699 31.8018 24.469C31.8018 24.3414 31.8018 24.2087 31.8018 24.0811C31.7953 23.8806 31.8452 23.6823 31.9458 23.509C32.0463 23.3357 32.1935 23.1944 32.3704 23.1014L32.4567 23.0605C32.5695 23.0042 32.6574 22.9077 32.7034 22.7898C32.7494 22.6719 32.7501 22.5411 32.7055 22.4227L32.1724 21.0143C32.1276 20.8955 32.0404 20.7977 31.9277 20.7401C31.815 20.6826 31.685 20.6693 31.5632 20.703H31.4718C31.2776 20.753 31.0733 20.7465 30.8827 20.6841C30.6921 20.6218 30.5231 20.5062 30.3955 20.3509C30.3092 20.2539 30.2228 20.1621 30.1315 20.0702C29.9851 19.9346 29.8806 19.7596 29.8302 19.566C29.7798 19.3725 29.7857 19.1685 29.8472 18.9782L29.8827 18.8863C29.9241 18.7655 29.919 18.6335 29.8682 18.5163C29.8174 18.3991 29.7248 18.3054 29.6085 18.2536L28.2378 17.6412C28.1212 17.588 27.9889 17.5811 27.8675 17.6218C27.7461 17.6625 27.6444 17.7478 27.5829 17.8606L27.5473 17.9372C27.4444 18.111 27.2941 18.2515 27.1141 18.342C26.9341 18.4324 26.732 18.4691 26.5319 18.4475C26.3999 18.4475 26.2882 18.4475 26.141 18.4475C25.9446 18.4516 25.7509 18.4008 25.5814 18.3008C25.412 18.2008 25.2735 18.0555 25.1815 17.881L25.1408 17.7943C25.0839 17.6818 24.9876 17.5945 24.8703 17.5493C24.7531 17.5041 24.6234 17.5041 24.5062 17.5493L23.105 18.0903C22.9877 18.1362 22.8917 18.2243 22.8354 18.3375C22.7791 18.4506 22.7666 18.5807 22.8004 18.7026L22.8258 18.7945C22.8751 18.9884 22.8688 19.1924 22.8078 19.3829C22.7467 19.5734 22.6332 19.7427 22.4805 19.8712C22.381 19.9561 22.2861 20.0464 22.1962 20.1416C22.0582 20.2873 21.8818 20.3905 21.6877 20.4393C21.4935 20.4881 21.2896 20.4804 21.0996 20.4172H21.0082C20.8894 20.3785 20.7604 20.3851 20.6461 20.436C20.5319 20.4868 20.4402 20.5783 20.3888 20.6928L19.7999 22.0604C19.7477 22.1758 19.7401 22.3066 19.7785 22.4273C19.817 22.5481 19.8989 22.6501 20.0081 22.7135L20.0944 22.7595C20.2678 22.8624 20.4079 23.0135 20.498 23.1945C20.5881 23.3755 20.6242 23.5789 20.6021 23.7801C20.6021 23.9076 20.6021 24.0403 20.6021 24.173C20.6087 24.3742 20.5583 24.5731 20.4567 24.7466C20.3552 24.9201 20.2066 25.0609 20.0284 25.1528L19.9472 25.1936C19.8334 25.2491 19.7444 25.3452 19.6974 25.4631C19.6505 25.5811 19.649 25.7124 19.6933 25.8314L20.2315 27.2399C20.2762 27.3587 20.3635 27.4564 20.4762 27.514C20.5888 27.5715 20.7188 27.5848 20.8407 27.5511L20.9321 27.5256C21.1262 27.4756 21.3305 27.4821 21.5211 27.5445C21.7117 27.6068 21.8807 27.7224 22.0084 27.8777C22.0896 27.9747 22.181 28.0665 22.2724 28.1584C22.4205 28.2927 22.526 28.4679 22.5757 28.6621C22.6253 28.8563 22.617 29.061 22.5516 29.2504L22.5212 29.3372C22.4783 29.4586 22.4827 29.5919 22.5335 29.7103C22.5844 29.8286 22.6779 29.9232 22.7953 29.975L24.1661 30.5874C24.2821 30.6391 24.4131 30.6452 24.5334 30.6046C24.6537 30.564 24.7545 30.4796 24.8159 30.368L24.8565 30.2914C24.9608 30.1189 25.1114 29.9794 25.291 29.8891C25.4707 29.7989 25.672 29.7614 25.8719 29.7811C25.9988 29.7811 26.1258 29.7811 26.2628 29.7811C26.4633 29.7761 26.6611 29.8281 26.8335 29.931C27.006 30.0339 27.146 30.1836 27.2376 30.3629L27.2782 30.4496C27.3211 30.5328 27.386 30.6026 27.4657 30.6512C27.5454 30.6998 27.6369 30.7254 27.7301 30.7252C27.7923 30.725 27.854 30.7147 27.9129 30.6946L29.2684 30.1281C29.3866 30.0831 29.4838 29.9954 29.5411 29.8822C29.5984 29.7689 29.6116 29.6383 29.5781 29.5158V29.4239C29.5275 29.23 29.5331 29.0257 29.5943 28.8349C29.6555 28.6441 29.7696 28.4749 29.9233 28.3472L30.2076 28.0767C30.3453 27.9306 30.5217 27.827 30.7159 27.7782C30.9102 27.7293 31.1143 27.7373 31.3042 27.8012L31.3956 27.8267C31.5074 27.8592 31.6269 27.8521 31.7342 27.8066C31.8414 27.761 31.9298 27.6799 31.9845 27.5767L32.5989 26.204C32.6556 26.0869 32.6656 25.9524 32.6269 25.8282C32.5882 25.7039 32.5037 25.5992 32.3907 25.5355ZM28.8876 25.3416C28.6537 25.8647 28.2743 26.3088 27.7951 26.6202C27.3159 26.9316 26.7573 27.0972 26.1867 27.097C25.7703 27.0957 25.3587 27.0071 24.9784 26.8367C24.4439 26.5962 23.9925 26.2017 23.6812 25.7031C23.3699 25.2046 23.2127 24.6245 23.2295 24.0361C23.2463 23.4477 23.4364 22.8776 23.7756 22.3979C24.1149 21.9181 24.5882 21.5503 25.1355 21.341C25.6828 21.1317 26.2796 21.0902 26.8503 21.2219C27.4211 21.3536 27.9401 21.6525 28.3418 22.0808C28.7435 22.5091 29.0098 23.0475 29.1069 23.6279C29.2041 24.2084 29.1278 24.8047 28.8876 25.3416Z" fill="white" fill-opacity="0.57"/>
</svg>
