<svg width="15" height="15" viewBox="0 0 15 15" fill="none" xmlns="http://www.w3.org/2000/svg">
<g clip-path="url(#clip0_288_1922)">
<path d="M8.35059 2.62729C8.35059 2.99751 8.64923 3.29608 9.01955 3.29608H13.7143C13.3798 2.80244 12.9856 2.36057 12.5476 1.9585H9.01955C8.64923 1.9585 8.35059 2.25706 8.35059 2.62729Z" fill="#2BC614"/>
<path d="M12.085 5.30258C12.085 5.6728 12.3836 5.97137 12.7539 5.97137H14.8484C14.7529 5.50959 14.6135 5.06373 14.4343 4.63379H12.7539C12.3836 4.63379 12.085 4.93236 12.085 5.30258Z" fill="#2BC614"/>
<path d="M5.04115 10.4418C5.04115 10.0716 4.7425 9.77306 4.37218 9.77306H2.41306C2.04274 9.77306 1.74409 9.47449 1.74409 9.10427C1.74409 8.73405 2.04274 8.43548 2.41306 8.43548H4.37616C4.74648 8.43548 5.04513 8.13691 5.04513 7.76669C5.04513 7.39647 4.74648 7.0979 4.37616 7.0979H0.0199097C0.0119458 7.22927 0 7.36064 0 7.49599C0 8.8057 0.338466 10.0358 0.927794 11.1106H4.37616C4.74648 11.1106 5.04513 10.8121 5.04513 10.4418H5.04115Z" fill="#47AF20"/>
<path d="M6.08804 13.2205C6.08804 12.8503 5.78939 12.5518 5.41907 12.5518H1.9707C2.44456 13.0693 2.99008 13.5191 3.59136 13.8893H5.41907C5.78939 13.8893 6.08804 13.5908 6.08804 13.2205Z" fill="#47AF20"/>
<path d="M14.8452 5.97134H12.7507C12.3803 5.97134 12.0817 5.67277 12.0817 5.30255C12.0817 4.93232 12.3803 4.63376 12.7507 4.63376H14.431C14.2359 4.16401 13.997 3.71417 13.7143 3.29618H9.01957C8.64925 3.29618 8.3506 2.99761 8.3506 2.62739C8.3506 2.25717 8.64925 1.9586 9.01957 1.9586H12.5476C11.2136 0.748408 9.44564 0 7.50245 0C5.05355 0 2.88737 1.17436 1.51758 2.98965H5.88179C6.25212 2.98965 6.55076 3.28822 6.55076 3.65844C6.55076 4.02866 6.25212 4.32723 5.88179 4.32723C5.51147 4.32723 5.21283 4.6258 5.21283 4.99602C5.21283 5.36624 5.51147 5.66481 5.88179 5.66481H10.258C10.6283 5.66481 10.9269 5.96338 10.9269 6.3336C10.9269 6.70382 10.6283 7.00239 10.258 7.00239C9.88764 7.00239 9.58899 7.30096 9.58899 7.67118C9.58899 8.0414 9.88764 8.33997 10.258 8.33997H14.9527C14.9845 8.06529 15.0005 7.78662 15.0005 7.50398C15.0005 6.9785 14.9447 6.46895 14.8452 5.97532V5.97134Z" fill="#24A90D"/>
<path d="M9.58815 7.66712C9.58815 7.2969 9.8868 6.99833 10.2571 6.99833C10.6274 6.99833 10.9261 6.69977 10.9261 6.32954C10.9261 5.95932 10.6274 5.66075 10.2571 5.66075H5.88096C5.51064 5.66075 5.21199 5.36219 5.21199 4.99197C5.21199 4.62174 5.51064 4.32318 5.88096 4.32318C6.25128 4.32318 6.54993 4.02461 6.54993 3.65439C6.54993 3.28416 6.25128 2.9856 5.88096 2.9856H1.51674C0.644697 4.14404 0.0991702 5.56123 0.0195312 7.10184H4.37578C4.7461 7.10184 5.04475 7.4004 5.04475 7.77063C5.04475 8.14085 4.7461 8.43942 4.37578 8.43942H2.41268C2.04236 8.43942 1.74372 8.73798 1.74372 9.10821C1.74372 9.47843 2.04236 9.777 2.41268 9.777H4.37578C4.7461 9.777 5.04475 10.0756 5.04475 10.4458C5.04475 10.816 4.7461 11.1146 4.37578 11.1146H0.927416C1.21412 11.6401 1.56851 12.1178 1.97069 12.5557H5.41905C5.78937 12.5557 6.08802 12.8542 6.08802 13.2245C6.08802 13.5947 5.78937 13.8932 5.41905 13.8932H3.59134C4.73018 14.5899 6.06811 14.9999 7.50161 14.9999C11.3601 14.9999 14.5377 12.0819 14.9518 8.33591H10.2571C9.8868 8.33591 9.58815 8.03735 9.58815 7.66712Z" fill="#308521"/>
<path d="M9.39738 13.1846C10.8136 13.1846 11.9618 12.3594 11.9618 11.3414C11.9618 10.3235 10.8136 9.49829 9.39738 9.49829C7.98112 9.49829 6.83301 10.3235 6.83301 11.3414C6.83301 12.3594 7.98112 13.1846 9.39738 13.1846Z" fill="#81FF52"/>
</g>
<defs>
<clipPath id="clip0_288_1922">
<rect width="15" height="15" fill="white"/>
</clipPath>
</defs>
</svg>
