<svg width="33" height="30" viewBox="0 0 33 30" fill="none" xmlns="http://www.w3.org/2000/svg">
<path d="M19.372 3.59375C17.7543 3.59375 16.2029 4.20284 15.059 5.28704C13.9151 6.37123 13.2725 7.84172 13.2725 9.375V12.5938H10.0084C9.84452 12.5938 9.71167 12.7197 9.71167 12.875V17.125C9.71167 17.2803 9.84452 17.4062 10.0084 17.4062H13.2725V26.125C13.2725 26.2803 13.4053 26.4062 13.5692 26.4062H18.0532C18.2171 26.4062 18.3499 26.2803 18.3499 26.125V17.4062H21.6429C21.7791 17.4062 21.8978 17.3184 21.9308 17.1932L23.0518 12.9432C23.0986 12.7657 22.957 12.5938 22.7639 12.5938H18.3499V9.375C18.3499 9.11807 18.4576 8.87167 18.6493 8.68999C18.841 8.50831 19.1009 8.40625 19.372 8.40625H22.8009C22.9648 8.40625 23.0977 8.28033 23.0977 8.125V3.875C23.0977 3.71967 22.9648 3.59375 22.8009 3.59375H19.372Z" fill="#100815"/>
</svg>
