<svg width="33" height="30" viewBox="0 0 33 30" fill="none" xmlns="http://www.w3.org/2000/svg">
<path d="M16.4415 10.9376C14.0743 10.9376 12.1554 12.7564 12.1554 15.0001C12.1554 17.2437 14.0743 19.0626 16.4415 19.0626C18.8087 19.0626 20.7277 17.2437 20.7277 15.0001C20.7277 12.7564 18.8087 10.9376 16.4415 10.9376Z" fill="#100815"/>
<path fill-rule="evenodd" clip-rule="evenodd" d="M9.5435 3.85189C14.0909 3.37017 18.7921 3.37017 23.3396 3.85189C25.8432 4.11711 27.8626 5.98683 28.1564 8.36815C28.7002 12.7744 28.7002 17.2257 28.1564 21.632C27.8626 24.0133 25.8432 25.883 23.3396 26.1482C18.7921 26.6299 14.0909 26.6299 9.5435 26.1482C7.03986 25.883 5.02049 24.0133 4.72664 21.632C4.18292 17.2257 4.18292 12.7744 4.72664 8.36815C5.02049 5.98683 7.03986 4.11711 9.5435 3.85189ZM23.0356 7.50006C22.3072 7.50006 21.7168 8.0597 21.7168 8.75006C21.7168 9.44041 22.3072 10.0001 23.0356 10.0001C23.764 10.0001 24.3544 9.44041 24.3544 8.75006C24.3544 8.0597 23.764 7.50006 23.0356 7.50006ZM10.1771 15.0001C10.1771 11.7209 12.9818 9.06256 16.4415 9.06256C19.9012 9.06256 22.7059 11.7209 22.7059 15.0001C22.7059 18.2792 19.9012 20.9376 16.4415 20.9376C12.9818 20.9376 10.1771 18.2792 10.1771 15.0001Z" fill="#100815"/>
</svg>
