<svg xmlns="http://www.w3.org/2000/svg" width="41" height="41" viewBox="0 0 41 41" fill="none">
  <g filter="url(#filter0_d_109_133)">
    <path d="M10.8025 4C9.25472 4 8 5.18924 8 6.65625C8 8.12326 9.25472 9.3125 10.8025 9.3125C12.3503 9.3125 13.605 8.12326 13.605 6.65625C13.605 5.18924 12.3503 4 10.8025 4Z" fill="white"/>
    <path d="M8.16485 11.5C8.07381 11.5 8 11.57 8 11.6562V27.9062C8 27.9925 8.07381 28.0625 8.16485 28.0625H13.4401C13.5312 28.0625 13.605 27.9925 13.605 27.9062V11.6562C13.605 11.57 13.5312 11.5 13.4401 11.5H8.16485Z" fill="white"/>
    <path d="M16.7372 11.5C16.6461 11.5 16.5723 11.57 16.5723 11.6562V27.9062C16.5723 27.9925 16.6461 28.0625 16.7372 28.0625H22.0124C22.1035 28.0625 22.1773 27.9925 22.1773 27.9062V19.1562C22.1773 18.5346 22.4378 17.9385 22.9016 17.499C23.3653 17.0594 23.9942 16.8125 24.6501 16.8125C25.3059 16.8125 25.9349 17.0594 26.3986 17.499C26.8623 17.9385 27.1229 18.5346 27.1229 19.1562V27.9062C27.1229 27.9925 27.1967 28.0625 27.2877 28.0625H32.563C32.654 28.0625 32.7278 27.9925 32.7278 27.9062V17.1316C32.7278 14.0981 29.9443 11.725 26.76 11.9994C25.7779 12.084 24.807 12.3154 23.9003 12.6837L22.1773 13.3836V11.6562C22.1773 11.57 22.1035 11.5 22.0124 11.5H16.7372Z" fill="white"/>
  </g>
  <defs>
    <filter id="filter0_d_109_133" x="0" y="0" width="40.7285" height="40.0625" filterUnits="userSpaceOnUse" color-interpolation-filters="sRGB">
      <feFlood flood-opacity="0" result="BackgroundImageFix"/>
      <feColorMatrix in="SourceAlpha" type="matrix" values="0 0 0 0 0 0 0 0 0 0 0 0 0 0 0 0 0 0 127 0" result="hardAlpha"/>
      <feOffset dy="4"/>
      <feGaussianBlur stdDeviation="4"/>
      <feComposite in2="hardAlpha" operator="out"/>
      <feColorMatrix type="matrix" values="0 0 0 0 0 0 0 0 0 0 0 0 0 0 0 0 0 0 0.25 0"/>
      <feBlend mode="normal" in2="BackgroundImageFix" result="effect1_dropShadow_109_133"/>
      <feBlend mode="normal" in="SourceGraphic" in2="effect1_dropShadow_109_133" result="shape"/>
    </filter>
  </defs>
</svg>