<svg width="32" height="30" viewBox="0 0 32 30" fill="none" xmlns="http://www.w3.org/2000/svg">
<path d="M6.36523 2.34375C4.81746 2.34375 3.56274 3.53299 3.56274 5C3.56274 6.46701 4.81746 7.65625 6.36523 7.65625C7.913 7.65625 9.16772 6.46701 9.16772 5C9.16772 3.53299 7.913 2.34375 6.36523 2.34375Z" fill="#62ED2E"/>
<path d="M3.7276 9.84375C3.63655 9.84375 3.56274 9.91371 3.56274 10V26.25C3.56274 26.3363 3.63655 26.4062 3.7276 26.4062H9.00287C9.09391 26.4062 9.16772 26.3363 9.16772 26.25V10C9.16772 9.91371 9.09391 9.84375 9.00287 9.84375H3.7276Z" fill="#62ED2E"/>
<path d="M12.2999 9.84375C12.2089 9.84375 12.1351 9.91371 12.1351 10V26.25C12.1351 26.3363 12.2089 26.4062 12.2999 26.4062H17.5752C17.6662 26.4062 17.74 26.3363 17.74 26.25V17.5C17.74 16.8784 18.0006 16.2823 18.4643 15.8427C18.928 15.4032 19.557 15.1562 20.2128 15.1562C20.8686 15.1562 21.4976 15.4032 21.9613 15.8427C22.4251 16.2823 22.6856 16.8784 22.6856 17.5V26.25C22.6856 26.3363 22.7594 26.4062 22.8505 26.4062H28.1257C28.2168 26.4062 28.2906 26.3363 28.2906 26.25V15.4753C28.2906 12.4419 25.5071 10.0687 22.3227 10.3431C21.3407 10.4277 20.3697 10.6591 19.463 11.0274L17.74 11.7273V10C17.74 9.91371 17.6662 9.84375 17.5752 9.84375H12.2999Z" fill="#62ED2E"/>
</svg>
