<svg width="32" height="30" viewBox="0 0 32 30" fill="none" xmlns="http://www.w3.org/2000/svg">
<path d="M28.893 7.78405C28.9695 7.68308 28.8566 7.55272 28.7343 7.59763C27.8656 7.91679 26.9577 8.13213 26.0315 8.23825C27.0627 7.65435 27.8585 6.7655 28.2997 5.71317C28.3447 5.60597 28.2212 5.51023 28.1146 5.566C27.1562 6.06767 26.1226 6.42892 25.0489 6.63697C25.0039 6.64568 24.9576 6.63117 24.926 6.59961C24.1203 5.79377 23.0596 5.25723 21.9034 5.07181C20.7228 4.88251 19.5094 5.06995 18.4533 5.60474C17.3973 6.13953 16.5584 6.99141 16.0682 8.0268C15.6021 9.01124 15.4763 10.1086 15.7062 11.1625C15.7241 11.2443 15.6565 11.3215 15.5686 11.3163C13.4795 11.1934 11.4384 10.6667 9.57091 9.76808C7.7082 8.87174 6.05871 7.62478 4.72292 6.10412C4.66364 6.03663 4.55128 6.04537 4.50808 6.12306C4.09243 6.87064 3.8748 7.70388 3.87539 8.55075C3.87371 9.39373 4.09197 10.224 4.51074 10.9677C4.92952 11.7114 5.53581 12.3454 6.27564 12.8133C5.49104 12.793 4.72174 12.6092 4.02211 12.2758C3.93195 12.2329 3.82379 12.294 3.82848 12.3896C3.88304 13.5011 4.31357 14.6171 5.05879 15.4732C5.85182 16.3843 6.95253 17.0078 8.17474 17.2383C7.70426 17.374 7.21579 17.4455 6.72404 17.4508C6.4564 17.4478 6.18928 17.4291 5.92422 17.3947C5.82595 17.382 5.7457 17.4705 5.7801 17.5586C6.14465 18.493 6.78866 19.3083 7.63544 19.9035C8.54075 20.5397 9.63279 20.8927 10.7596 20.9132C8.85684 22.3323 6.5076 23.1068 4.0864 23.1133C3.83762 23.114 3.58894 23.1064 3.34085 23.0904C3.20105 23.0813 3.13675 23.2579 3.25726 23.3257C5.61632 24.6526 8.31267 25.3539 11.063 25.3507C13.0935 25.3707 15.1079 25.007 16.9886 24.2809C18.8692 23.5547 20.5782 22.4806 22.016 21.1214C23.4537 19.7621 24.5913 18.145 25.3623 16.3644C26.1333 14.5838 26.5222 12.6754 26.5063 10.7507V10.151C26.5063 10.1115 26.526 10.0744 26.5592 10.0506C27.4538 9.41043 28.2404 8.64613 28.893 7.78405Z" fill="#100815"/>
</svg>
