<svg width="61" height="62" viewBox="0 0 61 62" fill="none" xmlns="http://www.w3.org/2000/svg">
<circle cx="30.5" cy="30.6216" r="30" transform="rotate(180 30.5 30.6216)" stroke="#62ED2E"/>
<path d="M39 30.1093C38.9999 30.3745 38.8946 30.6288 38.707 30.8163L32.707 36.8163C32.5184 36.9985 32.2658 37.0992 32.0036 37.097C31.7414 37.0947 31.4906 36.9895 31.3052 36.8041C31.1198 36.6187 31.0146 36.3679 31.0123 36.1057C31.01 35.8435 31.1108 35.5909 31.293 35.4023L35.586 31.1093L24 31.1093C23.7348 31.1093 23.4804 31.0039 23.2929 30.8164C23.1054 30.6289 23 30.3745 23 30.1093C23 29.8441 23.1054 29.5897 23.2929 29.4022C23.4804 29.2147 23.7348 29.1093 24 29.1093L35.586 29.1093L31.293 24.8163C31.1108 24.6277 31.01 24.3751 31.0123 24.1129C31.0146 23.8507 31.1198 23.5999 31.3052 23.4145C31.4906 23.2291 31.7414 23.1239 32.0036 23.1216C32.2658 23.1193 32.5184 23.2201 32.707 23.4023L38.707 29.4023C38.8945 29.5898 38.9999 29.8441 39 30.1093Z" fill="#62ED2E"/>
</svg>
