<svg width="174" height="78" viewBox="0 0 174 78" fill="none" xmlns="http://www.w3.org/2000/svg">
<rect x="0.5" y="0.5" width="173" height="77" rx="8.5" fill="#1A0E21" stroke="#7B2DA7"/>
<path d="M45.04 46V29.44H48.232L55.576 41.248V29.44H58.504V46H55.336L47.968 34.192V46H45.04ZM62.1627 42.208V37.192C62.1627 34.664 63.4267 33.4 65.9547 33.4H69.0747C71.5867 33.4 72.8427 34.664 72.8427 37.192V40.744H64.9707V42.448C64.9707 43.184 65.3387 43.552 66.0747 43.552H72.3627V45.064L71.0907 46H65.9547C63.4267 46 62.1627 44.736 62.1627 42.208ZM64.9707 38.56H70.0347V36.952C70.0347 36.216 69.6667 35.848 68.9307 35.848H66.0747C65.3387 35.848 64.9707 36.216 64.9707 36.952V38.56ZM75.1491 45.52L79.3731 39.616L75.2691 33.88L75.5091 33.4H78.1011L80.9571 37.528L83.8371 33.4H86.4291L86.6691 33.88L82.5651 39.616L86.7891 45.52L86.5731 46H83.9571L80.9571 41.704L77.9571 46H75.3651L75.1491 45.52ZM89.1884 42.208V29.44H91.9964V33.4H96.2924V35.848H91.9964V42.448C91.9964 43.184 92.3644 43.552 93.1004 43.552H96.5324V45.064L95.2604 46H92.9804C90.4524 46 89.1884 44.736 89.1884 42.208Z" fill="#CE84FF"/>
<path d="M132 30L141 39L132 48" stroke="#CE84FF" stroke-width="2"/>
</svg>
