<svg width="13" height="13" viewBox="0 0 13 13" fill="none" xmlns="http://www.w3.org/2000/svg">
<path d="M12.6668 1.94192C13.111 1.49768 13.111 0.77742 12.6668 0.33318C12.2226 -0.11106 11.5023 -0.11106 11.0581 0.33318L6.5 4.89126L1.94193 0.333181C1.49769 -0.111059 0.777434 -0.11106 0.333194 0.333181C-0.111046 0.777421 -0.111045 1.49768 0.333194 1.94192L4.89127 6.49999L0.33318 11.0581C-0.11106 11.5023 -0.11106 12.2226 0.33318 12.6668C0.777419 13.1111 1.49767 13.1111 1.94191 12.6668L6.5 8.10873L11.0581 12.6668C11.5023 13.1111 12.2226 13.1111 12.6668 12.6668C13.1111 12.2226 13.1111 11.5023 12.6668 11.0581L8.10873 6.49999L12.6668 1.94192Z" fill="#535055"/>
</svg>
