<svg width="22" height="22" viewBox="0 0 22 22" fill="none" xmlns="http://www.w3.org/2000/svg">
    <path d="M11 10.3993L15.5044 5.89498C15.6725 5.72681 15.9368 5.72681 16.1049 5.89498C16.2731 6.06314 16.2731 6.32739 16.1049 6.49556L11.6006 10.9999L16.1049 15.5043C16.2731 15.6724 16.2731 15.9367 16.1049 16.1048C15.9368 16.273 15.6725 16.273 15.5044 16.1048L11 11.6005L6.49564 16.1048C6.32748 16.273 6.06323 16.273 5.89506 16.1048C5.7269 15.9367 5.7269 15.6724 5.89506 15.5043L10.3994 10.9999L5.89506 6.49556C5.7269 6.32739 5.7269 6.06314 5.89506 5.89498C6.06323 5.72681 6.32748 5.72681 6.49564 5.89498L11 10.3993Z" fill="#fff"/>
</svg>
