<svg xmlns="http://www.w3.org/2000/svg" width="27" height="27" viewBox="0 0 27 27" fill="none">
    <path fill-rule="evenodd" clip-rule="evenodd" d="M0.133432 25.7752C0.0243426 26.1712 0.384994 26.5367 0.782391 26.4329L6.92551 24.8284C8.86465 25.8787 11.0479 26.4367 13.2707 26.4367H13.2773C20.5919 26.4367 26.5545 20.5086 26.5545 13.2217C26.5545 9.6898 25.1759 6.36792 22.6696 3.87321C20.1633 1.37862 16.8323 0 13.2772 0C5.96262 0 8.45712e-07 5.92807 8.45712e-07 13.2151C-0.000830358 15.5333 0.61106 17.8109 1.77425 19.8193L0.133432 25.7752ZM9.06914 6.89313C9.31309 6.89967 9.58354 6.91286 9.84086 7.48404C10.0115 7.86427 10.2989 8.56427 10.5331 9.13449C10.7153 9.57821 10.8652 9.94335 10.9027 10.0181C10.9885 10.1887 11.0412 10.3857 10.9291 10.6154C10.9159 10.6425 10.9034 10.6684 10.8914 10.6934C10.8014 10.88 10.7374 11.0129 10.5862 11.1866C10.524 11.258 10.4592 11.3363 10.3947 11.4143C10.2811 11.5514 10.1683 11.6877 10.0717 11.784C9.9002 11.9546 9.72205 12.1385 9.91991 12.4799C10.1179 12.8212 10.8104 13.9438 11.8328 14.8498C12.9319 15.8283 13.8876 16.2407 14.3708 16.4491C14.4646 16.4896 14.5405 16.5224 14.5963 16.5501C14.9393 16.7208 15.1438 16.6945 15.3416 16.4648C15.5396 16.235 16.1991 15.4668 16.43 15.1255C16.6542 14.7842 16.8851 14.8367 17.2017 14.9549C17.5183 15.073 19.2068 15.9002 19.5497 16.0708C19.6175 16.1046 19.6809 16.135 19.7397 16.1632C19.9783 16.2776 20.1405 16.3554 20.2093 16.4713C20.295 16.6157 20.295 17.2985 20.0114 18.0994C19.7213 18.9003 18.3229 19.6684 17.6897 19.7275C17.6298 19.7331 17.5701 19.7404 17.5087 19.7478C16.9284 19.818 16.1918 19.9071 13.5674 18.8741C10.3335 17.6024 8.19884 14.4472 7.76725 13.8093C7.73318 13.7589 7.70973 13.7243 7.69718 13.7074L7.68988 13.6977C7.49353 13.4349 6.29226 11.8276 6.29226 10.1691C6.29226 8.58243 7.07389 7.75635 7.4304 7.37956C7.453 7.35568 7.47388 7.33361 7.49276 7.31326C7.8093 6.97193 8.17874 6.8866 8.40955 6.8866C8.64048 6.8866 8.87129 6.8866 9.06914 6.89313Z" fill="white"/>
</svg>
