<svg width="26" height="20" viewBox="0 0 26 20" fill="none" xmlns="http://www.w3.org/2000/svg">
<g id="Icon">
<path d="M6.50701 0.280079C10.7134 -0.0933593 14.9436 -0.0933596 19.15 0.280078L21.1766 0.459996C22.5257 0.579769 23.6811 1.4016 24.2798 2.57716C24.3564 2.72755 24.299 2.90963 24.1579 2.99886L15.7496 8.31483C13.9462 9.45495 11.6723 9.47887 9.84639 8.37692L1.38188 3.26869C1.24512 3.18616 1.18235 3.01627 1.24398 2.86675C1.79169 1.53799 3.02306 0.589378 4.48042 0.459997L6.50701 0.280079Z" fill="white"/>
<path d="M1.23709 5.5691C1.02781 5.4428 0.760762 5.57872 0.736367 5.82573C0.395877 9.27334 0.478285 12.7536 0.98359 16.1854C1.24998 17.9946 2.69576 19.3816 4.48042 19.54L6.50701 19.7199C10.7134 20.0934 14.9436 20.0934 19.15 19.7199L21.1766 19.54C22.9612 19.3816 24.407 17.9946 24.6734 16.1854C25.1934 12.6536 25.2656 9.07047 24.8898 5.52442C24.8634 5.27565 24.5918 5.14224 24.3835 5.27394L16.8091 10.0627C14.3692 11.6052 11.2928 11.6376 8.82239 10.1467L1.23709 5.5691Z" fill="white"/>
</g>
</svg>
