<svg xmlns="http://www.w3.org/2000/svg" width="25" height="23" viewBox="0 0 25 23" fill="none">
    <path fill-rule="evenodd" clip-rule="evenodd" d="M21.1991 21.4918L21.1999 21.4896L21.2218 21.4322L25 1.48544V1.42065C25 0.923668 24.8246 0.489801 24.443 0.229555C24.109 0.00176037 23.7251 -0.0144625 23.4558 0.00693747C23.1711 0.02957 22.9026 0.103999 22.7167 0.165955C22.621 0.197828 22.541 0.22854 22.4838 0.251769C22.455 0.263427 22.4318 0.27332 22.4148 0.28069L22.3982 0.288022L1.33301 8.94128L1.32721 8.94346C1.31584 8.9478 1.30079 8.95367 1.28262 8.96108C1.24639 8.97585 1.19708 8.99698 1.13915 9.02447C1.02541 9.07845 0.868252 9.16176 0.708872 9.27605C0.43818 9.47016 -0.0772595 9.92971 0.00977661 10.6583C0.0818685 11.2617 0.479117 11.645 0.746931 11.8434C0.890494 11.9498 1.02784 12.0265 1.12841 12.0766C1.17937 12.102 1.22266 12.1215 1.2549 12.1352C1.27106 12.1421 1.28457 12.1476 1.29503 12.1518L1.30842 12.157L1.31697 12.1604L5.00247 13.4596C4.99003 13.7018 5.01296 13.9486 5.07428 14.1922L6.92038 21.5255C7.13927 22.395 7.89045 23.0007 8.74916 23C9.51887 22.9994 10.2015 22.5118 10.4915 21.7843L13.3738 18.5572L18.3238 22.5313L18.3942 22.5634C18.844 22.7689 19.2642 22.834 19.6483 22.7791C20.032 22.7242 20.3368 22.5558 20.5658 22.3639C20.7912 22.1751 20.9456 21.962 21.0427 21.8016C21.0921 21.7201 21.1289 21.6485 21.1544 21.5946C21.1672 21.5675 21.1773 21.5446 21.1849 21.5267L21.1943 21.5038L21.1977 21.4953L21.1991 21.4918ZM6.90163 13.6878C6.85967 13.5211 6.92554 13.3452 7.06449 13.2528L19.5652 4.93991C19.5652 4.93991 20.3004 4.47249 20.2741 4.93991C20.2741 4.93991 20.4054 5.02246 20.0114 5.40734C19.6377 5.77288 11.1018 14.4026 10.2381 15.2758C10.1883 15.3262 10.1585 15.384 10.1409 15.4542L8.74773 21.021L6.90163 13.6878Z" fill="white"/>
</svg>
