<svg width="29" height="27" viewBox="0 0 29 27" fill="none" xmlns="http://www.w3.org/2000/svg">
<path fill-rule="evenodd" clip-rule="evenodd" d="M0.140778 25.7752C0.0256828 26.1712 0.40619 26.5367 0.825465 26.4329L7.30679 24.8284C9.35269 25.8787 11.6561 26.4367 14.0013 26.4367H14.0082C21.7256 26.4367 28.0165 20.5086 28.0165 13.2217C28.0165 9.6898 26.5619 6.36792 23.9176 3.87321C21.2733 1.37862 17.759 0 14.0081 0C6.29089 0 8.92272e-07 5.92807 8.92272e-07 13.2151C-0.000876072 15.5333 0.644702 17.8109 1.87192 19.8193L0.140778 25.7752ZM9.56844 6.89313C9.82582 6.89967 10.1112 6.91286 10.3826 7.48404C10.5627 7.86427 10.8659 8.56427 11.113 9.13449C11.3052 9.57821 11.4634 9.94335 11.503 10.0181C11.5934 10.1887 11.6491 10.3857 11.5308 10.6154C11.5169 10.6425 11.5037 10.6684 11.491 10.6934C11.3961 10.88 11.3286 11.0129 11.169 11.1866C11.1034 11.258 11.035 11.3363 10.9669 11.4143C10.8472 11.5514 10.7282 11.6877 10.6262 11.784C10.4453 11.9546 10.2573 12.1385 10.466 12.4799C10.6749 12.8212 11.4056 13.9438 12.4842 14.8498C13.6438 15.8283 14.6522 16.2407 15.1619 16.4491C15.2609 16.4896 15.3411 16.5224 15.3999 16.5501C15.7618 16.7208 15.9775 16.6945 16.1862 16.4648C16.3951 16.235 17.0909 15.4668 17.3345 15.1255C17.5711 14.7842 17.8147 14.8367 18.1487 14.9549C18.4827 15.073 20.2642 15.9002 20.626 16.0708C20.6975 16.1046 20.7644 16.135 20.8264 16.1632C21.0782 16.2776 21.2493 16.3554 21.3219 16.4713C21.4124 16.6157 21.4124 17.2985 21.1132 18.0994C20.807 18.9003 19.3317 19.6684 18.6636 19.7275C18.6004 19.7331 18.5374 19.7404 18.4727 19.7478C17.8604 19.818 17.0832 19.9071 14.3143 18.8741C10.9024 17.6024 8.65022 14.4472 8.19487 13.8093C8.15893 13.7589 8.13418 13.7243 8.12094 13.7074L8.11324 13.6977C7.90608 13.4349 6.63867 11.8276 6.63867 10.1691C6.63867 8.58243 7.46334 7.75635 7.83948 7.37956C7.86332 7.35568 7.88535 7.33361 7.90526 7.31326C8.23924 6.97193 8.62901 6.8866 8.87253 6.8866C9.11617 6.8866 9.35969 6.8866 9.56844 6.89313Z" fill="#298806"/>
</svg>
