<svg width="22" height="21" viewBox="0 0 22 21" fill="none" xmlns="http://www.w3.org/2000/svg">
<path d="M5.78254 0.912031C5.78254 0.40833 5.37031 0 4.86181 0C4.3533 0 3.94107 0.40833 3.94107 0.912031V3.12088C2.1081 3.37757 0.660035 4.81364 0.414902 6.64547L0.308648 7.43949C0.290633 7.57411 0.273408 7.7088 0.256971 7.84357C0.21337 8.20104 0.497699 8.51229 0.861213 8.51229H21.1388C21.5023 8.51229 21.7866 8.20104 21.743 7.84356C21.7266 7.7088 21.7094 7.57411 21.6914 7.43949L21.5851 6.64547C21.34 4.81366 19.8919 3.37761 18.059 3.12089V0.912031C18.059 0.40833 17.6468 0 17.1383 0C16.6298 0 16.2175 0.40833 16.2175 0.912031V2.93994C12.7461 2.63371 9.254 2.63371 5.78254 2.93994V0.912031Z" fill="#5E3F96"/>
<path d="M21.9808 10.9146C21.9701 10.5907 21.6998 10.3364 21.3725 10.3364H0.62749C0.300234 10.3364 0.0299487 10.5907 0.0192011 10.9146C-0.0537194 13.1128 0.0810785 15.3155 0.423265 17.4938C0.68231 19.1428 2.03476 20.4094 3.71141 20.5732L5.17599 20.7162C9.04927 21.0946 12.9507 21.0946 16.824 20.7162L18.2886 20.5732C19.9652 20.4094 21.3177 19.1428 21.5767 17.4938C21.9189 15.3155 22.0537 13.1128 21.9808 10.9146Z" fill="#5E3F96"/>
</svg>
