<svg width="48" height="39" viewBox="0 0 48 39" fill="none" xmlns="http://www.w3.org/2000/svg">
<path d="M18.4929 28.6056C27.6181 25.7109 30.4949 17.8943 31.9455 16.015C33.148 14.7907 35.753 9.54004 37.1095 10.5443C37.957 11.1716 35.666 14.9107 36.261 15.2944C37.044 15.7992 39.1344 11.8901 40.4153 12.8753C41.6669 13.9316 38.8776 16.1884 37.4575 19.7074C36.3556 22.5191 31.4476 32.1831 20.5256 34.2572" fill="#62ED2E"/>
<path d="M18.4929 28.6056L18.9873 29.9793L20.5253 34.2574C31.4471 32.1835 36.3551 22.5191 37.4568 19.7075C38.8777 16.1884 41.667 13.9319 40.4157 12.8754C39.1342 11.8902 37.0443 15.7997 36.2613 15.2944C35.6659 14.9111 37.957 11.1719 37.1097 10.5443C35.753 9.53955 33.148 14.7902 31.9455 16.0139C30.918 17.3454 29.174 21.6574 24.9994 25.0874C23.2813 26.4994 21.1528 27.7615 18.4929 28.6056Z" fill="#62ED2E"/>
<path d="M18.4929 28.6056L18.987 29.9795L20.5253 34.2576C20.9433 34.1782 21.3527 34.0879 21.7536 33.9866C27.3454 32.5784 31.2445 29.1618 33.7868 25.9394C35.8205 23.3621 36.9861 20.9091 37.4568 19.7075C38.8776 16.1884 41.667 13.9319 40.4158 12.8758C39.1344 11.8902 37.0445 15.7994 36.2613 15.2941C35.666 14.9112 37.957 11.1717 37.11 10.5441C35.7532 9.54021 33.148 14.7907 31.9455 16.0152C30.9179 17.3466 29.1737 21.6587 24.9996 25.0886C23.2813 26.4995 21.1526 27.7615 18.4929 28.6056Z" fill="#62ED2E"/>
<path d="M18.4929 28.6055L18.987 29.9795L20.5253 34.2575C20.9433 34.1782 21.3527 34.0878 21.7536 33.9865C27.3454 32.5784 31.2445 29.1618 33.7868 25.9393C35.8205 23.362 36.9861 20.909 37.4568 19.7075C38.8776 16.1884 41.667 13.9319 40.4158 12.8757C39.6439 12.2823 38.5791 13.4637 37.6831 14.3874C37.0911 14.9975 36.5725 15.4949 36.2613 15.294C36.0574 15.163 36.1918 14.6381 36.4235 13.9794C36.8673 12.7151 37.6671 10.9565 37.11 10.5441C36.416 10.0306 35.3957 11.153 34.4035 12.5361C33.6305 13.6123 32.876 14.8465 32.3044 15.5902C32.1929 15.7389 32.0729 15.8806 31.945 16.0147C30.9174 17.346 29.1732 21.6582 24.9991 25.088C23.2813 26.4995 21.1526 27.7614 18.4929 28.6055Z" fill="#62ED2E"/>
<path d="M18.4929 28.6055L18.987 29.9795L20.5253 34.2575C20.9433 34.1782 21.3527 34.0878 21.7536 33.9865C27.3454 32.5784 31.2445 29.1618 33.7869 25.9393C35.8205 23.362 36.9861 20.909 37.4568 19.7075C38.5298 17.05 40.3829 15.1129 40.6871 13.8685C40.7862 13.4649 40.7224 13.1341 40.4158 12.8757C40.1362 12.6611 39.8187 12.6793 39.4839 12.8335C38.8955 13.1042 38.255 13.7981 37.6831 14.3874C37.0911 14.9975 36.5725 15.4949 36.2613 15.294C36.0574 15.163 36.1918 14.6381 36.4235 13.9794C36.8673 12.7151 37.6671 10.9565 37.11 10.5441C36.416 10.0306 35.3957 11.153 34.4035 12.5361C33.6305 13.6123 32.876 14.8465 32.3044 15.5902C32.1929 15.7389 32.0729 15.8806 31.945 16.0147C30.9174 17.346 29.1732 21.6582 24.9991 25.088C23.2813 26.4995 21.1526 27.7614 18.4929 28.6055Z" fill="#62ED2E"/>
<path d="M18.4929 28.6055L18.987 29.9795L20.5253 34.2576C20.9433 34.1782 21.3527 34.0879 21.7536 33.9866C27.3454 32.5784 31.2445 29.1618 33.7869 25.9393C35.8205 23.3621 36.9861 20.9091 37.4568 19.7075C38.5298 17.05 40.3829 15.113 40.6871 13.8685C40.7862 13.4649 40.7224 13.1341 40.4158 12.8758C40.1362 12.6611 39.8187 12.6793 39.4839 12.8335C38.8955 13.1042 38.255 13.7981 37.6831 14.3874C37.0911 14.9975 36.5725 15.495 36.2613 15.294C36.0574 15.1631 36.1918 14.6381 36.4235 13.9794C36.6948 13.2068 37.0984 12.2499 37.2449 11.5283C37.3379 11.0687 37.3269 10.7047 37.11 10.5441C36.7902 10.3072 36.4004 10.4183 35.9765 10.7425C35.4806 11.1214 34.9382 11.7905 34.4035 12.5362C33.6305 13.6123 32.876 14.8465 32.3044 15.5903C32.1929 15.7389 32.0729 15.8806 31.945 16.0147C30.9174 17.3461 29.1732 21.6582 24.9991 25.0881C23.2813 26.4995 21.1526 27.7615 18.4929 28.6055Z" fill="#62ED2E"/>
<path d="M18.493 28.6055L18.9257 29.8085L18.987 29.9795L20.5255 34.2572C20.9435 34.1783 21.3529 34.0881 21.7539 33.9866C27.345 32.5784 31.2442 29.1614 33.7871 25.9392C35.8203 23.3616 36.9859 20.909 37.4566 19.7074C38.5296 17.0497 40.3827 15.1129 40.6874 13.8683C40.7863 13.4649 40.7222 13.1338 40.4158 12.8754C40.1365 12.6606 39.8186 12.6789 39.4837 12.8332C38.8953 13.104 38.2549 13.7978 37.6832 14.3869C37.0914 14.9972 36.5726 15.4946 36.2612 15.2939C36.0572 15.1629 36.1921 14.6379 36.4233 13.9792C36.6951 13.207 37.0985 12.2498 37.245 11.5285C37.3382 11.0682 37.327 10.7045 37.1096 10.5439C36.7898 10.307 36.4004 10.418 35.9764 10.7424C35.4806 11.1211 34.938 11.7903 34.4038 12.5362C33.6308 13.6119 32.8772 14.8467 32.3057 15.5902C32.1937 15.7385 32.0734 15.88 31.9455 16.0138C31.0549 17.1681 29.6245 20.5639 26.5386 23.6817C26.0497 24.1771 25.5361 24.6461 24.9999 25.0867C23.2813 26.4998 21.1523 27.7616 18.493 28.6055Z" fill="#62ED2E"/>
<path d="M40.6872 13.8679C40.3827 15.1123 38.5297 17.0492 37.4563 19.7065C36.9859 20.9084 35.8201 23.3609 33.787 25.9385C31.2445 29.1608 27.3448 32.5777 21.7537 33.9859C21.3534 34.0871 20.9439 34.1773 20.5252 34.2566L18.9876 29.9787L18.9257 29.8079L18.8621 29.633L18.4926 28.6047C21.1521 27.7613 23.2816 26.5 24.9991 25.0871C25.5355 24.6468 26.0491 24.1779 26.5378 23.6823C26.8428 23.3742 27.1324 23.0627 27.4062 22.7513C29.902 19.915 31.1421 17.0546 31.9448 16.0142C32.0728 15.8803 32.1929 15.7387 32.3045 15.5901C32.8757 14.8466 33.6298 13.6119 34.4027 12.5362C34.9378 11.7893 35.4804 11.1206 35.9763 10.7414C36.4004 10.4172 36.7895 10.306 37.1096 10.5431C37.3269 10.7039 37.3378 11.0671 37.2448 11.5278C37.0985 12.2493 36.6951 13.2059 36.4231 13.9782C36.1922 14.6375 36.0574 15.1619 36.2612 15.2932C36.5728 15.4935 37.0913 14.9965 37.6834 14.3863C38.2546 13.7968 38.8949 13.1034 39.4836 12.832C39.8186 12.678 40.1368 12.66 40.4159 12.8749C40.7224 13.133 40.786 13.4646 40.6872 13.8679Z" fill="#62ED2E"/>
<path d="M27.4066 22.7513C26.1366 26.9688 22.6517 28.8806 18.8625 29.633L18.4929 28.6047C21.1525 27.7613 23.282 26.5 24.9994 25.0871C25.5358 24.6468 26.0494 24.1779 26.5382 23.6823C26.8435 23.3742 27.1328 23.0627 27.4066 22.7513Z" fill="#2BC614"/>
<path d="M21.3548 28.935C17.66 30.3196 13.1716 30.1742 10.0313 29.7865C7.40419 27.8577 5.38664 25.7728 3.90071 23.6583C3.72578 23.4104 3.55912 23.1612 3.39978 22.9128C8.84178 22.2241 17.7949 24.308 21.3548 28.935Z" fill="#2BC614"/>
<path d="M35.9764 10.7414C36.1448 11.3436 36.7892 11.521 37.2448 11.5273C37.3379 11.0677 37.3269 10.7037 37.11 10.5431C36.7902 10.3063 36.4009 10.4175 35.9764 10.7414Z" fill="#2BC614"/>
<path d="M39.4839 12.8327C39.4839 13.5563 40.2113 13.8286 40.6871 13.8677C40.7861 13.4641 40.7224 13.1333 40.4158 12.875C40.1362 12.6603 39.8186 12.678 39.4839 12.8327Z" fill="#2BC614"/>
<path d="M32.3048 15.5899C33.1763 15.6051 34.1245 15.9033 34.4542 17.0281C34.6517 17.7025 36.0478 18.4939 36.5956 18.5854C37.4916 18.7352 37.5447 17.9823 38.1461 17.0998C38.3867 16.7468 38.8533 16.2308 38.4112 16.0736C37.4082 15.7178 37.6062 14.6766 37.683 14.3871C37.091 14.9972 36.5724 15.4946 36.2612 15.2937C36.0573 15.1627 36.1917 14.6378 36.4234 13.979C36.0258 14.1379 35.3145 14.3301 34.8023 13.9389C34.3351 13.5821 34.3362 12.955 34.4035 12.5363C33.6304 13.6119 32.8759 14.8462 32.3048 15.5899Z" fill="#2BC614"/>
<path d="M21.7536 33.9858C27.3454 32.5776 31.2445 29.161 33.7869 25.9385C33.7869 25.9397 33.785 25.9402 33.7842 25.9413C28.3285 31.2641 24.1345 32.2527 22.5611 30.728C21.5944 29.7909 21.5671 31.8527 21.7536 33.9858Z" fill="#2BC614"/>
<path d="M20.5245 34.5246C20.4597 34.5246 20.3972 34.4996 20.3493 34.4546C20.3014 34.4095 20.2715 34.3477 20.2656 34.2812C20.2596 34.2148 20.2779 34.1484 20.317 34.0951C20.3561 34.0418 20.4131 34.0054 20.4768 33.9931C32.1334 31.7795 36.7292 20.8459 37.2146 19.6063C37.7979 18.1615 38.614 16.9158 39.2698 15.9146C40.2529 14.414 40.7844 13.5404 40.2542 13.0858C39.7043 12.6726 38.766 13.6442 38.0119 14.4254C37.2425 15.2222 36.6347 15.8514 36.1221 15.5208C35.6711 15.23 35.9707 14.4287 36.4242 13.2155C36.7155 12.4356 37.258 10.9839 36.9571 10.7611C36.8647 10.6928 36.7653 10.671 36.6445 10.6928C35.8183 10.8419 34.5211 12.7924 33.574 14.2166C33.0098 15.0652 32.5217 15.799 32.1394 16.193C31.8898 16.5197 31.5903 17.0371 31.2126 17.6901C29.4395 20.7548 26.1397 26.4596 18.569 28.861C18.5031 28.8819 18.4318 28.875 18.3707 28.8418C18.3097 28.8086 18.2641 28.7518 18.2437 28.6839C18.2234 28.616 18.2301 28.5426 18.2623 28.4798C18.2946 28.4169 18.3498 28.3699 18.4157 28.349C25.7945 26.0083 29.0283 20.4187 30.7654 17.4158C31.1579 16.7374 31.4679 16.2017 31.7412 15.8475L31.7619 15.8238C32.1106 15.4688 32.6128 14.7136 33.1454 13.9139C34.2553 12.2449 35.5133 10.353 36.5552 10.1642C36.8162 10.1169 37.0538 10.1713 37.2618 10.3252C37.8888 10.7895 37.4137 12.0608 36.9107 13.4071C36.6976 13.9776 36.38 14.8272 36.4209 15.0691C36.4608 15.0691 36.5613 15.046 36.7707 14.8845C37.0239 14.6892 37.3251 14.3769 37.6441 14.0468C38.5424 13.1163 39.6605 11.9583 40.5717 12.6591L40.581 12.6667C41.5116 13.4526 40.7133 14.6707 39.7027 16.2135C39.0599 17.1948 38.26 18.4159 37.6977 19.8087C37.3291 20.7494 35.888 24.0878 32.8646 27.4399C29.4377 31.2387 25.3021 33.6213 20.5727 34.5194C20.5569 34.5226 20.5407 34.5244 20.5245 34.5246Z" fill="#371A45"/>
<path d="M31.4153 17.8131C31.1257 15.9867 31.6343 12.7266 32.7686 12.9459C34.0038 12.9827 33.354 14.3512 33.5491 14.9893C33.6992 15.4806 34.3228 16.2701 34.6003 17.5661" fill="#62ED2E"/>
<path d="M31.4151 17.8129L34.5999 17.5673C34.3226 16.2706 33.6994 15.4804 33.5494 14.9903C33.4381 14.6273 33.6005 14.0274 33.5335 13.571C33.4825 13.2254 33.3002 12.9619 32.7683 12.9463C32.4997 12.8946 32.2659 13.0377 32.0703 13.3113C31.438 14.1908 31.1942 16.419 31.4151 17.8129Z" fill="#62ED2E"/>
<path d="M32.0707 13.3105C32.3887 13.7922 33.1202 13.7308 33.5337 13.5702C33.4827 13.2245 33.3004 12.9611 32.7685 12.9455C32.5 12.8938 32.2663 13.0369 32.0707 13.3105Z" fill="#2BC614"/>
<path d="M31.4153 17.813C31.0063 16.5195 31.0419 14.0426 31.9695 12.9815C32.1649 12.7554 32.514 12.5953 32.8189 12.6704L32.7766 12.6657C33.051 12.6798 33.349 12.7553 33.5542 12.9832C33.9077 13.3925 33.8136 13.9984 33.795 14.4747C33.7875 14.6694 33.767 14.8349 33.8328 15.0109C33.9729 15.4023 34.1955 15.8241 34.328 16.2354C34.4761 16.6664 34.5751 17.1162 34.6003 17.5668C34.3609 16.9457 34.0546 16.3702 33.6995 15.8134C33.5575 15.5749 33.3756 15.3157 33.2818 15.0254C33.2255 14.8339 33.2253 14.6252 33.2358 14.4411C33.2444 14.0888 33.3767 13.6061 33.1722 13.3509C33.1008 13.2653 32.9302 13.2249 32.7486 13.2265C32.5972 13.1956 32.4882 13.2627 32.3796 13.3832C31.6715 14.2712 31.4198 16.643 31.4155 17.8137L31.4153 17.813Z" fill="#371A45"/>
<path d="M40.3994 13.5414C40.6061 13.6522 41.1807 13.7639 41.4838 13.1099C41.8324 12.358 41.2683 11.6795 40.5171 11.6993C39.9381 11.7102 39.2573 12.5196 39.8094 13.1941" fill="#62ED2E"/>
<path d="M39.8091 13.1933L40.3994 13.5414C40.6036 13.6509 41.1682 13.7614 41.4736 13.1312C41.4774 13.1243 41.4808 13.1172 41.4838 13.1099C41.8322 12.358 41.2685 11.6795 40.5174 11.6991C40.3314 11.7024 40.1358 11.7882 39.9729 11.9254C39.6278 12.2151 39.4345 12.7356 39.8091 13.1933Z" fill="#62ED2E"/>
<path d="M39.8091 13.1933L40.3994 13.5414C40.6035 13.6509 41.1681 13.7614 41.4736 13.1312C41.3087 13.2294 40.7408 13.5148 40.2265 13.1394C39.6063 12.6868 39.9721 11.9254 39.9721 11.9254C39.6278 12.2151 39.4344 12.7356 39.8091 13.1933Z" fill="#2BC614"/>
<path d="M40.3994 13.5414C40.8301 13.6304 41.1877 13.4086 41.3041 12.994C41.5075 12.4359 41.0699 11.9562 40.5292 11.9524C40.2046 11.9403 39.8358 12.2386 39.7374 12.5746C39.6749 12.7777 39.7145 12.9971 39.8094 13.1941C39.7088 13.1198 39.6269 13.0217 39.5706 12.9082C39.5143 12.7946 39.4853 12.6687 39.486 12.5412C39.4911 12.1276 39.7563 11.752 40.1082 11.5627C40.4722 11.363 40.9535 11.4255 41.3009 11.6506C42.479 12.4202 41.4464 14.3182 40.3999 13.5405L40.3994 13.5414Z" fill="#371A45"/>
<path d="M36.9016 11.249C37.1149 11.3459 37.6952 11.4194 37.9569 10.7466C38.2578 9.97311 37.6526 9.33354 36.9042 9.40296C36.3269 9.45209 35.6981 10.3049 36.2911 10.9421" fill="#62ED2E"/>
<path d="M36.291 10.9413L36.9017 11.2488C37.1124 11.3446 37.6825 11.4176 37.9481 10.7682C37.9514 10.7612 37.9544 10.7539 37.957 10.7465C38.2577 9.97312 37.6529 9.33322 36.9044 9.40248C36.719 9.41886 36.5289 9.5171 36.3751 9.66447C36.049 9.97738 35.8885 10.5094 36.291 10.9413Z" fill="#62ED2E"/>
<path d="M36.291 10.9413L36.9017 11.2488C37.1124 11.3446 37.6825 11.4176 37.9481 10.7683C37.789 10.8771 37.2407 11.1997 36.704 10.8591C36.0568 10.4485 36.3751 9.66382 36.3751 9.66382C36.049 9.97738 35.8885 10.5094 36.291 10.9413Z" fill="#2BC614"/>
<path d="M36.9017 11.249C37.3371 11.3093 37.6809 11.0643 37.7703 10.6432C37.9385 10.0728 37.4718 9.62305 36.9319 9.65514C36.6073 9.66447 36.2579 9.98655 36.1808 10.3284C36.131 10.5351 36.1843 10.7516 36.2912 10.9418C36.1862 10.8744 36.0984 10.7821 36.0352 10.6726C35.9719 10.5632 35.935 10.4397 35.9275 10.3126C35.907 9.89944 36.1479 9.50696 36.4876 9.29491C36.8384 9.0714 37.3225 9.10202 37.683 9.30375C38.9075 9.99376 37.9947 11.9564 36.9017 11.2493V11.249Z" fill="#371A45"/>
<path d="M33.1227 13.387C33.3557 13.3988 33.9228 13.2527 33.9326 12.528C33.9437 11.695 33.1558 11.3217 32.4815 11.6631C31.9599 11.9223 31.6705 12.9506 32.4457 13.3257" fill="#62ED2E"/>
<path d="M32.4457 13.3257L33.1229 13.3869C33.3529 13.3986 33.9104 13.256 33.9321 12.5519C33.9321 12.5443 33.9321 12.5363 33.9321 12.5283C33.943 11.6952 33.1555 11.3217 32.4811 11.6629C32.3135 11.7461 32.1704 11.9085 32.0785 12.1029V12.1037C31.8846 12.5155 31.9194 13.0713 32.4457 13.3257Z" fill="#62ED2E"/>
<path d="M32.4456 13.3257L33.1229 13.387C33.3528 13.3986 33.9104 13.256 33.932 12.5519C33.822 12.712 33.4222 13.216 32.8029 13.0965C32.0555 12.9526 32.0795 12.1029 32.0795 12.1029V12.1037C31.8846 12.5155 31.9194 13.0713 32.4456 13.3257Z" fill="#2BC614"/>
<path d="M33.1227 13.387C33.5501 13.2823 33.7849 12.9269 33.7222 12.5001C33.6802 11.9056 33.0879 11.6584 32.5952 11.8879C32.2954 12.0166 32.0817 12.4463 32.1288 12.7941C32.1545 13.0053 32.2797 13.187 32.4457 13.3257C32.3242 13.3016 32.2101 13.2478 32.1129 13.169C32.0157 13.0902 31.9382 12.9886 31.8869 12.8727C31.7236 12.4947 31.8118 12.0394 32.0548 11.7158C32.3043 11.3775 32.7668 11.2274 33.1736 11.2824C34.5571 11.4741 34.3893 13.6426 33.1227 13.387Z" fill="#371A45"/>
<path d="M37.4576 16.0332C36.5216 15.872 35.7546 15.3127 35.0004 14.7647C35.8284 14.5505 37.0238 15.3197 37.4576 16.0332Z" fill="#371A45"/>
<path d="M25.8472 35.8102C25.252 36.0051 24.6424 36.1936 24.0184 36.3756C13.7501 33.3819 7.37225 28.5979 3.9001 23.6578C3.72517 23.4099 3.55851 23.1607 3.39917 22.9123C9.18482 22.18 18.9385 24.5824 21.9625 29.8415C21.9631 29.842 25.2239 34.3777 25.8472 35.8102Z" fill="#62ED2E"/>
<path d="M25.8472 35.8102C25.252 36.0051 24.6425 36.1936 24.0184 36.3756C21.7544 35.7157 19.6796 34.9682 17.7839 34.1516C11.0794 31.265 6.60661 27.509 3.90095 23.6578C3.72603 23.4099 3.55937 23.1607 3.40002 22.9123C9.18568 22.18 18.9393 24.5824 21.9634 29.8415C21.9634 29.8415 23.2268 31.5992 24.3316 33.272C25.0007 34.2874 25.6117 35.2698 25.8472 35.8102Z" fill="#62ED2E"/>
<path d="M25.8472 35.8102C25.252 36.0051 24.6424 36.1936 24.0184 36.3756C21.7544 35.7157 19.6796 34.9682 17.7838 34.1516C20.5722 34.8523 24.356 35.7573 24.3307 33.272C25.0007 34.2874 25.6117 35.2698 25.8472 35.8102Z" fill="#2BC614"/>
<path d="M21.3548 28.935C17.66 30.3196 13.1716 30.1742 10.0313 29.7865C7.40419 27.8577 5.38664 25.7728 3.90071 23.6583C3.72578 23.4104 3.55912 23.1612 3.39978 22.9128C8.84178 22.2241 17.7949 24.308 21.3548 28.935Z" fill="#2BC614"/>
<path d="M21.9631 29.8418C23.226 31.4941 24.4939 33.1477 25.6258 34.9014C25.7872 35.1557 25.9413 35.4177 26.0848 35.7013L25.6096 35.9202C25.3892 35.3926 25.09 34.8701 24.8043 34.3679C23.9063 32.8287 22.9424 31.329 21.9631 29.8416V29.8418Z" fill="#371A45"/>
<path d="M16.0247 33.3506C16.2358 33.5097 16.4707 33.6029 16.6926 33.6659C16.9421 33.8849 17.2294 33.9531 17.5575 34.0543C18.0704 34.9356 17.6273 36.3937 18.3159 36.9214C18.4465 37.0215 18.536 37.3218 19.0757 37.283C19.5668 37.2478 19.8941 36.0877 20.0949 34.9726C20.3361 35.4389 20.1854 36.4667 20.4637 36.9246C20.6272 37.1936 20.9934 37.3752 21.4783 37.3953C22.4343 36.6509 22.3564 34.5344 21.9269 33.7532C20.9296 31.7885 17.0057 30.9943 16.0247 33.3506Z" fill="#62ED2E"/>
<path d="M21.4791 37.395C20.9938 37.3749 20.6282 37.1933 20.4642 36.9247C20.1864 36.4663 20.337 35.4389 20.0953 34.9726C19.8949 36.086 19.5676 37.2476 19.0765 37.283C18.5359 37.322 18.4473 37.021 18.3166 36.9213C18.1214 36.772 18.0173 36.5468 17.9569 36.2827C17.8026 35.6135 17.925 34.6864 17.558 34.0547C17.2301 33.9535 16.9426 33.8852 16.6934 33.6661C16.4708 33.6032 16.236 33.5101 16.0245 33.3514C16.2861 32.723 16.7572 32.3184 17.3257 32.1014C18.8903 31.5026 21.196 32.3143 21.9274 33.7552C22.3568 34.5346 22.4348 36.6506 21.4791 37.395Z" fill="#62ED2E"/>
<path d="M18.2425 36.2387C18.1493 36.266 18.0531 36.2807 17.9562 36.2822C17.802 35.613 17.9244 34.6859 17.5574 34.0542C17.2295 33.953 16.942 33.8847 16.6928 33.6656C16.4701 33.6028 16.2354 33.5096 16.0239 33.3509C16.2855 32.7225 16.7566 32.3179 17.3251 32.1009C17.2774 32.2974 17.275 32.6249 17.5711 33.0126C18.4174 34.1179 18.1735 35.3826 18.2425 36.2387Z" fill="#2BC614"/>
<path d="M19.5771 33.2132C19.7401 33.3156 20.2609 33.7372 20.5251 34.5886C20.8035 35.4882 20.7442 36.6818 20.7041 37.17C20.6081 37.1067 20.5264 37.023 20.4645 36.9244C20.1863 36.4659 20.3372 35.4391 20.0957 34.9723C19.899 36.0633 19.5803 37.1992 19.1069 37.2796C18.9987 37.0464 18.9725 36.7826 19.1242 36.508C19.5919 35.6605 19.8781 34.01 19.5771 33.2132Z" fill="#2BC614"/>
<path d="M21.4789 37.6632H21.4684C20.9063 37.6398 20.4599 37.4225 20.2439 37.0669C20.1245 36.8704 20.0708 36.6131 20.0393 36.34C19.7848 37.1325 19.4765 37.523 19.0947 37.5505C18.5449 37.5903 18.3245 37.3279 18.206 37.187C18.1901 37.1685 18.169 37.143 18.1606 37.1358C17.6898 36.7756 17.645 36.1221 17.6016 35.4905C17.5722 35.0605 17.5416 34.6171 17.3815 34.2801L17.3764 34.2785C17.0914 34.1927 16.8214 34.1113 16.5705 33.9086C16.2941 33.8249 16.0649 33.7121 15.8708 33.5671C15.8233 33.5313 15.7889 33.48 15.7734 33.4216C15.7579 33.3631 15.762 33.301 15.7852 33.2453C16.191 32.2706 17.1137 31.684 18.3167 31.6364C19.8963 31.5747 21.5449 32.4289 22.1559 33.6253C22.6265 34.4876 22.7305 36.7569 21.6356 37.6092C21.5904 37.6442 21.5355 37.6631 21.4789 37.6632ZM20.0954 34.7047C20.1426 34.7047 20.1889 34.7179 20.2293 34.7429C20.2698 34.7679 20.3029 34.8038 20.325 34.8467C20.4664 35.1198 20.4935 35.4917 20.5221 35.8853C20.5464 36.2203 20.5741 36.6 20.6849 36.7824C20.7958 36.9648 21.061 37.0885 21.3929 37.1209C22.1419 36.4243 22.07 34.5567 21.7009 33.8852L21.6968 33.8773C21.1835 32.8667 19.709 32.1168 18.3369 32.1718C17.7924 32.1934 16.8465 32.3665 16.362 33.2514C16.4896 33.3178 16.6238 33.3701 16.7621 33.4076C16.7988 33.418 16.8328 33.4365 16.8618 33.4619C17.041 33.6191 17.2533 33.6831 17.5222 33.764L17.6335 33.7976C17.6958 33.8168 17.7488 33.8592 17.7821 33.9166C18.047 34.372 18.0842 34.9212 18.1213 35.4525C18.158 35.987 18.1927 36.492 18.4726 36.7065C18.5195 36.7447 18.5622 36.7882 18.5998 36.8361C18.6901 36.9437 18.7682 37.0366 19.0587 37.0163C19.0746 37.0149 19.4722 36.9634 19.84 34.9243C19.8511 34.8627 19.8827 34.8071 19.9295 34.7671C19.9762 34.7271 20.0351 34.7052 20.0959 34.7052L20.0954 34.7047Z" fill="#371A45"/>
<path d="M19.0962 36.417C19.323 36.4871 19.8179 36.825 19.5892 37.5224C19.3252 38.3237 18.4477 38.4058 17.9148 37.8432C17.5013 37.4127 17.5627 36.3271 18.4288 36.2385L19.0962 36.417Z" fill="#62ED2E"/>
<path d="M19.251 37.4228C19.1144 37.7783 18.7313 37.818 18.4929 37.7197C19.129 37.4875 18.8897 36.4802 19.0813 36.564C19.2915 36.6564 19.3957 37.1104 19.251 37.4228Z" fill="#2BC614"/>
<path d="M19.0963 36.417C20.3898 36.6184 19.8331 38.7444 18.4519 38.4454C18.0458 38.3563 17.6536 38.0524 17.5264 37.6421C17.4004 37.2491 17.4656 36.7829 17.7454 36.4785C17.8324 36.3855 17.9398 36.3153 18.0585 36.2736C18.1773 36.2319 18.304 36.2201 18.4281 36.239C18.2231 36.3125 18.0426 36.4427 17.9478 36.636C17.7864 36.9531 17.8487 37.4412 18.0943 37.6706C18.4918 38.0649 19.1448 38.0342 19.3809 37.4765C19.5813 37.0891 19.4724 36.6649 19.0963 36.417Z" fill="#371A45"/>
<path d="M21.5252 36.6819C21.7545 36.7428 22.2621 37.0601 22.0597 37.7662C21.827 38.5779 20.9535 38.6959 20.3991 38.1556C19.9698 37.7424 19.9887 36.655 20.8506 36.5316" fill="#62ED2E"/>
<path d="M21.5252 36.6819C22.8255 36.8301 22.3521 38.9772 20.96 38.7354C20.5505 38.6629 20.1469 38.3752 20.004 37.9707C19.8629 37.5827 19.91 37.1147 20.1776 36.799C20.261 36.7025 20.3656 36.6279 20.4827 36.5814C20.5997 36.5349 20.7259 36.5178 20.8506 36.5316C20.6486 36.6135 20.4734 36.751 20.3861 36.948C20.2371 37.2714 20.3184 37.7565 20.5726 37.9758C20.985 38.3534 21.6364 38.2959 21.8507 37.729C22.0358 37.3338 21.9105 36.9143 21.5252 36.6811V36.6819Z" fill="#371A45"/>
<path d="M19.5774 33.213C20.0472 33.662 20.2612 34.3317 20.3557 34.9713L19.8352 34.9741L19.8601 34.7535C19.8993 34.2295 19.8479 33.6728 19.5774 33.213Z" fill="#371A45"/>
<path d="M21.7069 37.7348C21.5703 38.0904 21.1872 38.1299 20.9489 38.0318C21.585 37.7994 21.3464 36.7921 21.5372 36.8759C21.7473 36.9683 21.8515 37.4223 21.7069 37.7348Z" fill="#2BC614"/>
<path d="M15.66 28.5951C10.2519 28.5674 6.36645 26.6511 3.9006 23.6581C1.55721 20.3242 0.536743 16.9194 0.536743 13.9455C0.536743 6.56503 6.34752 0.582092 13.5154 0.582092C17.9681 0.582092 20.8029 2.33101 23.9968 5.11297C25.8658 7.11061 27.2767 9.87374 28.036 13.4515C29.4785 20.2485 28.2405 27.9629 17.7242 28.5212" fill="#62ED2E"/>
<path d="M27.7307 22.5088C26.4496 25.7725 23.4731 28.2162 17.7239 28.5209L15.6602 28.5954C10.9402 28.5705 7.38011 27.1081 4.91172 24.7475C4.55405 24.4054 4.21648 24.0417 3.9008 23.6583C1.5574 20.3242 0.536621 16.9192 0.536621 13.9457C0.536621 6.56486 6.34772 0.582092 13.5153 0.582092C17.968 0.582092 20.8031 2.33117 23.997 5.11313C25.8662 7.11077 27.2765 9.87341 28.0362 13.4512C28.6896 16.5328 28.7932 19.8023 27.7307 22.5088Z" fill="#62ED2E"/>
<g opacity="0.7">
<path d="M26.8504 9.60815C26.1732 8.2234 25.3555 7.03644 24.4251 6.04089C21.256 3.28038 18.4429 1.54473 14.0234 1.54473C13.5522 1.54459 13.0813 1.57094 12.6128 1.62365C12.7401 1.72026 12.8302 1.83946 12.8751 1.98011C13.1001 2.6842 12.1022 3.65486 10.6462 4.14723C9.19013 4.6396 7.8284 4.47012 7.60322 3.76604C7.5571 3.61998 7.56299 3.46328 7.61435 3.30101C3.74782 5.5888 1.14362 9.88406 1.14362 14.8064C1.14362 17.6064 2.05499 20.7905 4.13504 23.935C4.05553 23.8439 3.97745 23.7516 3.9008 23.6583C1.5574 20.3242 0.536621 16.9192 0.536621 13.9457C0.536621 6.56486 6.34772 0.582092 13.5153 0.582092C17.968 0.582092 20.8031 2.33117 23.997 5.11313C25.1316 6.32564 26.0971 7.8201 26.8504 9.60815Z" fill="white"/>
</g>
<path d="M27.7306 22.5088C26.4495 25.7725 23.473 28.2162 17.7238 28.5209L15.6601 28.5954C10.9401 28.5705 7.38001 27.1081 4.91162 24.7475C8.43339 26.3895 14.0936 28.2316 20.7407 26.8047C24.2324 26.0551 26.3929 24.3368 27.7306 22.5088Z" fill="#2BC614"/>
<path d="M15.66 28.5951C13.5358 28.737 11.3613 28.4824 9.33877 27.7764C8.76119 27.553 8.16198 27.31 7.61526 27.0146C7.50903 26.9529 7.16744 26.7792 7.06344 26.7088C6.78912 26.5382 6.43911 26.3284 6.17974 26.1344C5.25076 25.481 4.40985 24.7039 3.67891 23.8233C1.59027 20.8627 0.141073 17.2603 0.243644 13.5499C0.365775 6.32039 6.26942 0.317479 13.2864 0.247562C14.6346 0.227258 15.9886 0.36611 17.2951 0.730107C19.919 1.43992 22.1802 3.08798 24.2156 4.87276C26.0189 6.80293 27.2251 9.24137 27.9407 11.7977C28.6015 14.1783 28.9585 16.6783 28.7631 19.1549C28.7285 19.6026 28.6576 20.0732 28.5835 20.5162C28.5697 20.5927 28.4712 21.0402 28.4542 21.1281C27.7704 24.0278 26.0156 26.2781 23.3624 27.5023C23.2757 27.5398 22.8806 27.7136 22.8028 27.7459C22.5398 27.8328 22.2639 27.9463 21.9986 28.0221C21.8415 28.0713 21.4495 28.1679 21.2976 28.2117C21.1512 28.2433 20.741 28.3221 20.5881 28.3527C19.6415 28.509 18.682 28.5655 17.7243 28.5212C18.4988 28.3829 19.288 28.2627 20.0513 28.0714C20.4044 28.0028 20.8384 27.8646 21.1873 27.7742C23.0238 27.2116 24.8304 26.3091 26.0824 24.7753C27.9309 22.5774 28.3882 19.5279 28.1974 16.7078C27.9008 12.637 26.4958 8.25384 23.79 5.36398C21.8022 3.63405 19.6554 2.06427 17.1251 1.38212C11.0278 -0.254304 4.74692 2.51194 2.03363 8.44477C0.548177 11.6615 0.489815 15.4586 1.68871 18.784C2.24736 20.4319 3.16557 22.1203 4.10939 23.4759C4.9772 24.5265 6.00559 25.4244 7.15408 26.1342C9.71439 27.7323 12.702 28.3513 15.6602 28.5951H15.66Z" fill="#371A45"/>
<path d="M27.0502 10.3602C27.893 11.2326 28.7312 13.7169 27.6226 16.6292C26.5141 19.5415 23.8248 20.2115 22.8848 19.1508C22.1631 18.3359 21.4657 15.9628 22.5745 13.0513C23.6834 10.1398 26.1868 9.46684 27.0502 10.3602Z" fill="#371A45"/>
<g opacity="0.7">
<path d="M22.3166 18.104C22.197 17.051 22.3037 15.743 22.852 14.3037C23.9611 11.3919 26.4651 10.7193 27.328 11.6125C27.6126 11.9072 27.8971 12.3863 28.1059 13.0043C27.9598 11.7762 27.5051 10.8319 27.0498 10.3604C26.187 9.46716 23.683 10.1398 22.5737 13.0508C21.7789 15.1362 21.9122 16.9455 22.3166 18.104Z" fill="white"/>
</g>
<g opacity="0.35">
<path d="M22.8837 19.1505C23.8239 20.2115 26.5127 19.5404 27.6214 16.6289C28.4324 14.4994 28.2022 12.5981 27.6901 11.3892C27.7443 12.3389 27.6106 13.432 27.1691 14.5924C26.0607 17.5041 23.3719 18.1754 22.4315 17.114C22.2825 16.9457 22.1344 16.7103 22.0031 16.4173C22.067 17.7104 22.4719 18.685 22.8837 19.1505Z" fill="#111A28"/>
</g>
<path d="M10.1673 14.3984C9.54166 15.5921 9.60305 18.2484 12.1428 20.3648C14.6826 22.4811 18.139 21.8098 18.7996 20.3975C19.3068 19.3137 19.1266 16.8262 16.587 14.7098C14.0473 12.5935 10.808 13.1761 10.1673 14.3984Z" fill="#371A45"/>
<g opacity="0.7">
<path d="M10.0368 17.2945C10.0209 16.6316 10.1541 16.0584 10.3661 15.6535C11.0068 14.4313 14.2463 13.8489 16.7858 15.9646C18.0451 17.0137 18.7248 18.1549 19.0281 19.1701C19.0131 17.9257 18.4036 16.2228 16.5875 14.7095C14.0479 12.5938 10.8085 13.1754 10.1678 14.3984C9.82989 15.0424 9.69186 16.1121 10.0368 17.2945Z" fill="white"/>
</g>
<g opacity="0.35">
<path d="M12.1421 20.355C14.6811 22.4707 18.1374 21.8 18.7989 20.3885C19.0882 19.7694 19.1534 18.6923 18.683 17.4879C18.6512 17.8165 18.5766 18.1017 18.4719 18.3256C17.8112 19.7378 14.3543 20.4085 11.8155 18.2928C10.8028 17.4486 10.184 16.5193 9.84531 15.6307C9.75291 16.9721 10.2853 18.8079 12.1421 20.355Z" fill="#111A28"/>
</g>
<path d="M24.0753 19.8929C23.5057 19.8929 23.017 19.6982 22.6918 19.3308C21.9375 18.4793 21.1729 15.9947 22.3316 12.9529C23.0925 10.9552 24.4784 10.0055 25.5229 9.78253C26.2266 9.63205 26.8506 9.77385 27.2345 10.1713C28.1015 11.0689 29.0391 13.6426 27.8641 16.7271C27.1092 18.7084 25.6807 19.6355 24.5953 19.8421C24.4238 19.8753 24.2498 19.8923 24.0753 19.8929ZM26.0509 10.2607C25.9089 10.2614 25.7673 10.277 25.6283 10.3073C24.7179 10.5017 23.5011 11.3502 22.816 13.1486C21.7435 15.9649 22.4063 18.2134 23.0762 18.9697C23.3688 19.3 23.9015 19.4282 24.5005 19.315C25.4483 19.1349 26.7024 18.3087 27.3789 16.5314C28.4059 13.8356 27.6969 11.4103 26.8648 10.5492C26.683 10.3605 26.3929 10.2607 26.0509 10.2607Z" fill="#371A45"/>
<path d="M15.8489 21.9799C14.6511 21.9799 13.225 21.6112 11.979 20.5731C9.26972 18.3154 9.28944 15.5095 9.93906 14.2712C10.2215 13.7323 10.8948 13.3177 11.7863 13.1338C13.4538 12.79 15.31 13.3012 16.7514 14.5022C19.423 16.7291 19.5698 19.3714 19.0348 20.5144C18.7433 21.1367 18.0144 21.6243 17.0349 21.8506C16.6454 21.9382 16.2477 21.9816 15.8489 21.9799ZM12.7956 13.571C12.4911 13.5697 12.1872 13.5993 11.8882 13.6593C11.1599 13.8096 10.6024 14.1341 10.3969 14.5256C9.78497 15.6931 9.97309 18.2117 12.3069 20.1565C13.8566 21.4479 15.7064 21.6082 16.9206 21.3277C17.7316 21.1403 18.3469 20.7492 18.5655 20.2819C19.0313 19.2865 18.8616 16.9503 16.4236 14.9188C15.2276 13.9226 13.8846 13.571 12.7952 13.571H12.7956Z" fill="#371A45"/>
<path d="M21.6512 20.1908C21.7171 19.9811 21.6789 19.7805 21.5658 19.7428C21.4526 19.705 21.3074 19.8445 21.2415 20.0543C21.1755 20.264 21.2138 20.4646 21.3269 20.5023C21.4401 20.5401 21.5852 20.4006 21.6512 20.1908Z" fill="#371A45"/>
<path d="M21.0001 20.5742C21.0884 20.4922 21.0437 20.293 20.9003 20.1293C20.7568 19.9656 20.569 19.8994 20.4807 19.9814C20.3924 20.0634 20.4371 20.2626 20.5805 20.4263C20.724 20.59 20.9118 20.6562 21.0001 20.5742Z" fill="#371A45"/>
<path d="M21.7936 21.8267C21.1475 22.9268 19.4631 23.3229 18.6465 22.2002C18.6259 22.1726 18.6165 22.138 18.6202 22.1034C18.6239 22.0689 18.6405 22.0372 18.6665 22.0151C18.6925 21.9929 18.7258 21.982 18.7594 21.9846C18.793 21.9872 18.8244 22.0031 18.8468 22.029C19.0278 22.2328 19.2522 22.3904 19.5025 22.4895C20.2992 22.7916 21.2138 22.4363 21.7936 21.8267Z" fill="#371A45"/>
<path d="M19.2222 21.6352C19.0431 21.7898 18.882 21.927 18.7648 22.1199C18.6427 22.3076 18.6032 22.5325 18.5444 22.7529C18.219 22.2606 18.6532 21.5534 19.2222 21.6352Z" fill="#371A45"/>
<path d="M21.1861 13.6159C21.0907 11.5919 22.5696 9.54608 24.5602 9.2818C22.733 10.1888 21.7275 11.6297 21.1861 13.6159Z" fill="#371A45"/>
<path d="M12.6683 12.3538C14.2141 11.7905 16.0397 12.2151 17.2444 13.3482C17.6397 13.7282 17.9708 14.1733 18.2244 14.6651C17.8414 14.2782 17.4656 13.908 17.05 13.5926C15.7916 12.6349 14.2177 12.2631 12.6683 12.3538Z" fill="#371A45"/>
<path d="M21.856 7.32263C21.8145 7.19573 22.1956 2.24208 25.476 1.59874C27.1919 1.26209 28.4631 2.34949 28.97 2.79028C29.241 2.66654 29.5438 2.63699 29.8325 2.70611C30.1213 2.77522 30.3804 2.93924 30.5707 3.17338C30.7609 3.40752 30.872 3.69905 30.887 4.00393C30.9021 4.3088 30.8204 4.61045 30.6543 4.86329C30.4882 5.11613 30.2466 5.30642 29.9662 5.4054C29.6857 5.50439 29.3816 5.50669 29.0997 5.41196C28.8179 5.31723 28.5736 5.13061 28.4039 4.88031C28.2342 4.63001 28.1482 4.32963 28.1589 4.02456C28.1609 3.96457 28.1668 3.90478 28.1766 3.84559C27.3665 3.41889 24.3644 2.55728 23.7783 7.48064L21.856 7.32263Z" fill="#62ED2E"/>
<path d="M22.359 6.8771C22.4188 6.39586 22.5694 5.56078 22.9097 4.70016C23.5081 3.18736 24.4011 2.30463 25.5637 2.0767C25.6833 2.05287 25.8042 2.03646 25.9258 2.02758C27.2551 1.93507 28.2429 2.79422 28.665 3.16116L28.8908 3.35765L29.1612 3.23402C29.2552 3.19097 29.356 3.16537 29.4587 3.15838C29.4905 3.15625 29.5223 3.15576 29.5541 3.1569C29.7836 3.16409 30.0016 3.26201 30.1629 3.43034C30.3241 3.59867 30.4162 3.82448 30.4201 4.06088C30.4239 4.29729 30.3392 4.52613 30.1834 4.6999C30.0277 4.87367 29.813 4.97902 29.5838 4.99408C29.5521 4.99639 29.5202 4.99688 29.4884 4.99555C29.2519 4.9863 29.0286 4.88078 28.8676 4.70216C28.7066 4.52355 28.621 4.28644 28.6297 4.04291C28.6311 4.0041 28.6349 3.96543 28.6411 3.92714L28.6989 3.57592L28.3908 3.41365C28.1879 3.30673 27.455 2.96287 26.545 3.02624C25.3546 3.10925 23.8669 3.87163 23.3734 6.95995L22.359 6.8771Z" fill="#62ED2E"/>
<path d="M30.4146 4.11088C30.4058 4.35462 30.3033 4.58477 30.1297 4.75071C29.9561 4.91665 29.7256 5.00479 29.4889 4.99574C29.2522 4.98668 29.0287 4.88118 28.8675 4.70243C28.7063 4.52368 28.6207 4.28634 28.6295 4.0426C28.631 4.00384 28.6349 3.96521 28.6414 3.927L28.6467 3.89327C28.7061 4.06807 28.8152 4.22041 28.9598 4.33043C29.1045 4.44046 29.278 4.50306 29.4577 4.51008C29.4892 4.5115 29.5207 4.51112 29.5522 4.50894C29.7474 4.49574 29.933 4.41658 30.0801 4.28375C30.2272 4.15092 30.3277 3.97182 30.3659 3.77423C30.4026 3.88228 30.4192 3.99651 30.4146 4.11088Z" fill="#2BC614"/>
<g opacity="0.7">
<path d="M30.8792 3.92617C30.6531 3.51682 30.1816 2.86186 29.6913 2.84303C29.4773 2.835 29.066 3.00824 28.838 3.22127C28.3315 2.78015 27.1765 1.83586 25.6467 2.14303C22.9879 2.67683 21.8558 7.32233 21.8558 7.32233C21.8143 7.19592 22.1954 2.24226 25.4757 1.59843C27.1916 1.26194 28.4635 2.34951 28.97 2.79063C29.1592 2.70391 29.3653 2.66313 29.5722 2.67143C29.9002 2.68394 30.2128 2.81764 30.4528 3.04806C30.6928 3.27849 30.8442 3.59021 30.8792 3.92617Z" fill="white"/>
</g>
<path d="M21.8559 7.32265C21.7605 5.53787 22.4259 3.23174 23.8164 2.07639C24.9711 1.07527 26.6799 0.968679 27.9828 1.72303C28.4108 1.95669 28.7966 2.26223 29.138 2.58562L28.8643 2.54534C29.5239 2.23309 30.3622 2.45184 30.8014 3.04524C31.8192 4.43131 30.4288 6.2788 28.8716 5.60844C28.2002 5.31715 27.7933 4.53889 27.9195 3.80107C27.9195 3.80009 28.0576 4.08434 28.0576 4.08418C26.2924 3.3403 24.9515 3.98102 24.2469 5.79855C24.0361 6.31908 23.8875 6.92492 23.7777 7.47984L23.8095 7.03872L23.8628 6.59859C24.0004 5.70734 24.2632 4.80022 24.8647 4.11398C25.7037 3.11778 27.2033 2.97647 28.2942 3.60638L28.4485 3.69644L28.4326 3.88965C28.3963 4.13723 28.4326 4.39725 28.5521 4.61683C28.7799 5.06793 29.3196 5.30863 29.7949 5.17699C30.5568 4.98606 30.8833 4.00657 30.3916 3.37584C30.0327 2.90803 29.4295 2.82043 28.9322 3.10075C28.5475 2.78326 28.1517 2.48263 27.7133 2.25912C26.5917 1.65197 25.1735 1.71583 24.1603 2.52651C22.85 3.54875 22.107 5.68982 21.8559 7.32265Z" fill="#371A45"/>
<path d="M13.0821 10.3352C11.7649 7.05724 10.1299 6.79935 9.20345 7.64671C8.73974 8.07014 8.49945 8.8764 8.39656 9.45948C8.65293 9.62416 8.84895 9.87183 8.95384 10.1636C9.05873 10.4554 9.06656 10.7748 8.9761 11.0716C8.88565 11.3685 8.70202 11.626 8.45405 11.8038C8.20607 11.9816 7.90778 12.0696 7.60599 12.054C7.3042 12.0383 7.016 11.92 6.78661 11.7174C6.55722 11.5149 6.39962 11.2397 6.33857 10.935C6.27751 10.6303 6.31644 10.3133 6.44924 10.0338C6.58205 9.75438 6.80122 9.52822 7.07236 9.39088C7.13819 8.36848 7.52399 6.51214 8.92882 5.78857C11.7739 4.32145 13.9942 7.52799 14.7134 9.25039L13.0821 10.3352Z" fill="#62ED2E"/>
<path d="M7.73726 11.5691C7.7055 11.5714 7.67365 11.5719 7.64184 11.5706C7.44319 11.5629 7.2527 11.4873 7.10052 11.3556C6.94834 11.2239 6.84318 11.0437 6.80167 10.8435C6.76017 10.6433 6.78469 10.4346 6.87137 10.2504C6.95805 10.0662 7.10192 9.91708 7.28022 9.82657L7.52448 9.70278L7.54261 9.42295C7.58046 8.84609 7.80548 6.90985 9.14018 6.22214C9.49973 6.03694 9.86183 5.93035 10.2166 5.90562C12.0249 5.78004 13.4631 7.74951 14.1116 9.07221L13.2906 9.61829C12.1082 7.02856 10.7901 6.7037 10.0841 6.75282C9.64922 6.78311 9.23639 6.96568 8.89019 7.28301C8.27874 7.84203 8.02764 8.83233 7.93254 9.37284L7.87529 9.6977L8.14754 9.87209C8.30759 9.97485 8.43191 10.1272 8.50267 10.3072C8.57344 10.4872 8.58702 10.6857 8.54145 10.8741C8.49589 11.0626 8.39353 11.2314 8.24905 11.3562C8.10458 11.4811 7.92541 11.5556 7.73726 11.5691Z" fill="#62ED2E"/>
<path d="M8.53409 10.4046C8.55941 10.496 8.57047 10.591 8.56685 10.686C8.55948 10.9131 8.47055 11.1292 8.31727 11.2925C8.164 11.4559 7.9573 11.5548 7.73722 11.5702C7.70545 11.5723 7.6736 11.5726 7.6418 11.5712C7.40528 11.5619 7.18201 11.4564 7.02101 11.2777C6.86 11.0991 6.77443 10.862 6.78307 10.6184C6.78445 10.5871 6.78715 10.5563 6.79118 10.5261C6.84251 10.7135 6.95017 10.8795 7.09872 11.0001C7.24727 11.1207 7.42908 11.1897 7.61811 11.1974C7.64992 11.1986 7.68177 11.198 7.71352 11.1956C7.91788 11.1813 8.11116 11.0948 8.26068 10.9506C8.4102 10.8065 8.50679 10.6136 8.53409 10.4046Z" fill="#2BC614"/>
<g opacity="0.7">
<path d="M14.1916 8.22421C13.1041 6.64263 11.28 5.08366 9.12922 6.22657C8.07059 6.78951 7.4981 8.74212 7.4523 9.54511C6.43454 9.78122 6.47414 10.5981 6.45394 11.1449C6.45219 11.1909 6.45394 11.2367 6.45553 11.2817C6.37476 11.116 6.32664 10.9355 6.31394 10.7505C6.30125 10.5656 6.32422 10.3799 6.38155 10.2041C6.43887 10.0283 6.52942 9.86598 6.64796 9.72641C6.7665 9.58684 6.91069 9.4728 7.07223 9.39086C7.13823 8.36863 7.52418 6.5118 8.92885 5.78856C11.2678 4.58244 13.1833 6.53489 14.1916 8.22421Z" fill="white"/>
</g>
<path d="M13.082 10.3352C12.5961 9.37351 12.0404 8.37027 11.1457 7.76229C10.5481 7.36064 9.81693 7.35998 9.32539 7.91785C8.96233 8.33834 8.78693 8.95286 8.65287 9.50614C8.65287 9.50957 8.53424 9.23089 8.53408 9.23154C8.8392 9.42807 9.07276 9.72284 9.19848 10.0701C9.53387 10.9569 9.01576 12.0109 8.12379 12.2594C7.24009 12.5345 6.25684 11.9282 6.08557 10.9911C5.9275 10.2643 6.30486 9.47126 6.9575 9.15033L6.81279 9.37301C6.82289 9.11198 6.84988 8.85193 6.89357 8.59459C6.98899 8.01184 7.16996 7.4353 7.45541 6.91821C7.50391 6.81669 7.60505 6.67342 7.66341 6.57648L7.78523 6.41618C7.82517 6.36209 7.86818 6.31047 7.91404 6.26161L8.05016 6.11277L8.19997 5.9767C9.05186 5.24903 10.2859 5.00228 11.3328 5.38052C12.5231 5.80543 13.4141 6.82881 14.0623 7.90213C14.3167 8.33277 14.5414 8.78158 14.7127 9.25086C14.0591 7.93995 13.1383 6.69863 11.8682 6.00306C11.0592 5.55294 10.0672 5.49874 9.23681 5.91464C9.00903 6.02044 8.79657 6.1582 8.60548 6.32399C8.5689 6.36034 8.46411 6.46137 8.42578 6.49903C8.38841 6.54259 8.29856 6.65049 8.26214 6.69208C8.23193 6.7358 8.14669 6.85582 8.11473 6.90069L8.02583 7.04806C7.58645 7.80372 7.39784 8.68825 7.31642 9.56246C7.31642 9.56246 7.18682 9.63205 7.18618 9.63222C6.48329 9.97886 6.3583 11.0006 6.95798 11.5152C7.42281 11.9439 8.20712 11.8488 8.56588 11.324C8.94436 10.8123 8.79615 10.016 8.25912 9.68658L8.11218 9.59194C8.16705 9.1965 8.23702 8.80598 8.38475 8.42757C8.76928 7.32069 9.8252 6.64787 10.925 7.17479C12.0962 7.78374 12.6724 9.12937 13.0817 10.335L13.082 10.3352Z" fill="#371A45"/>
<path d="M13.082 10.3352C12.5961 9.37351 12.0404 8.37027 11.1457 7.76229C10.5481 7.36064 9.81693 7.35998 9.32539 7.91785C8.96233 8.33834 8.78693 8.95286 8.65287 9.50614C8.65287 9.50957 8.53424 9.23089 8.53408 9.23154C8.8392 9.42807 9.07276 9.72284 9.19848 10.0701C9.53387 10.9569 9.01576 12.0109 8.12379 12.2594C7.24009 12.5345 6.25684 11.9282 6.08557 10.9911C5.9275 10.2643 6.30486 9.47126 6.9575 9.15033L6.81279 9.37301C6.82289 9.11198 6.84988 8.85193 6.89357 8.59459C6.98899 8.01184 7.16996 7.4353 7.45541 6.91821C7.50391 6.81669 7.60505 6.67342 7.66341 6.57648L7.78523 6.41618C7.82517 6.36209 7.86818 6.31047 7.91404 6.26161L8.05016 6.11277L8.19997 5.9767C9.05186 5.24903 10.2859 5.00228 11.3328 5.38052C12.5231 5.80543 13.4141 6.82881 14.0623 7.90213C14.3167 8.33277 14.5414 8.78158 14.7127 9.25086C14.0591 7.93995 13.1383 6.69863 11.8682 6.00306C11.0592 5.55294 10.0672 5.49874 9.23681 5.91464C9.00903 6.02044 8.79657 6.1582 8.60548 6.32399C8.5689 6.36034 8.46411 6.46137 8.42578 6.49903C8.38841 6.54259 8.29856 6.65049 8.26214 6.69208C8.23193 6.7358 8.14669 6.85582 8.11473 6.90069L8.02583 7.04806C7.58645 7.80372 7.39784 8.68825 7.31642 9.56246C7.31642 9.56246 7.18682 9.63205 7.18618 9.63222C6.48329 9.97886 6.3583 11.0006 6.95798 11.5152C7.42281 11.9439 8.20712 11.8488 8.56588 11.324C8.94436 10.8123 8.79615 10.016 8.25912 9.68658L8.11218 9.59194C8.16705 9.1965 8.23702 8.80598 8.38475 8.42757C8.76928 7.32069 9.8252 6.64787 10.925 7.17479C12.0962 7.78374 12.6724 9.12937 13.0817 10.335L13.082 10.3352Z" fill="#371A45"/>
<path d="M17.2701 33.0713C17.5763 33.3935 17.7897 33.8032 17.9163 34.2353L17.3982 34.2859C17.4484 33.8803 17.4106 33.4572 17.2709 33.0713H17.2701Z" fill="#371A45"/>
</svg>
