<svg width="147" height="67" viewBox="0 0 147 67" fill="none" xmlns="http://www.w3.org/2000/svg">
    <path d="M19.9232 29.802C29.7541 26.7863 32.8534 18.6427 34.4162 16.6848C35.7117 15.4093 38.5182 9.93905 39.9796 10.9853C40.8926 11.6388 38.4245 15.5344 39.0654 15.9341C39.909 16.46 42.1611 12.3873 43.5411 13.4138C44.8894 14.5143 41.8844 16.8655 40.3545 20.5316C39.1674 23.461 33.8798 33.5292 22.113 35.69" fill="#62ED2E"/>
    <path d="M19.9232 29.802L20.4558 31.2332L22.1127 35.6902C33.8792 33.5295 39.1668 23.461 40.3538 20.5318C41.8846 16.8655 44.8896 14.5146 43.5414 13.414C42.1609 12.3875 39.9094 16.4605 39.0658 15.9341C38.4243 15.5347 40.8926 11.6391 39.9798 10.9853C38.5182 9.93853 35.7117 15.4088 34.4162 16.6836C33.3093 18.0709 31.4303 22.5632 26.9329 26.1367C25.0819 27.6077 22.7887 28.9226 19.9232 29.802Z" fill="#62ED2E"/>
    <path d="M19.9232 29.802L20.4555 31.2334L22.1127 35.6904C22.563 35.6077 23.0041 35.5136 23.436 35.4081C29.4603 33.941 33.661 30.3815 36.4 27.0243C38.5908 24.3392 39.8467 21.7836 40.3538 20.5318C41.8844 16.8655 44.8896 14.5146 43.5416 13.4143C42.1611 12.3875 39.9095 16.4602 39.0658 15.9337C38.4245 15.5349 40.8926 11.639 39.9801 10.9851C38.5184 9.93922 35.7117 15.4093 34.4162 16.685C33.3091 18.0721 31.43 22.5645 26.9331 26.1379C25.0819 27.6079 22.7886 28.9226 19.9232 29.802Z" fill="#62ED2E"/>
    <path d="M19.9232 29.802L20.4555 31.2334L22.1127 35.6904C22.563 35.6077 23.0041 35.5136 23.436 35.4081C29.4603 33.941 33.661 30.3815 36.4 27.0243C38.5908 24.3392 39.8467 21.7836 40.3538 20.5318C41.8844 16.8655 44.8896 14.5146 43.5416 13.4143C42.71 12.7961 41.5628 14.0269 40.5976 14.9892C39.9597 15.6248 39.401 16.1431 39.0658 15.9337C38.8461 15.7973 38.9909 15.2504 39.2405 14.5641C39.7187 13.247 40.5803 11.4148 39.9801 10.9851C39.2325 10.4501 38.1332 11.6195 37.0643 13.0605C36.2315 14.1816 35.4186 15.4675 34.8029 16.2423C34.6827 16.3972 34.5534 16.5449 34.4157 16.6845C33.3086 18.0716 31.4295 22.564 26.9326 26.1374C25.0819 27.6079 22.7886 28.9226 19.9232 29.802Z" fill="#62ED2E"/>
    <path d="M19.9232 29.802L20.4555 31.2334L22.1127 35.6904C22.563 35.6077 23.0041 35.5136 23.436 35.4081C29.4603 33.941 33.661 30.3815 36.4 27.0243C38.5908 24.3392 39.8467 21.7836 40.3538 20.5318C41.5097 17.7631 43.5061 15.7451 43.8339 14.4486C43.9406 14.0281 43.8719 13.6835 43.5416 13.4143C43.2404 13.1907 42.8983 13.2096 42.5376 13.3703C41.9037 13.6523 41.2136 14.3752 40.5976 14.9892C39.9597 15.6248 39.401 16.1431 39.0658 15.9337C38.8461 15.7973 38.9909 15.2504 39.2405 14.5641C39.7187 13.247 40.5803 11.4148 39.9801 10.9851C39.2325 10.4501 38.1332 11.6195 37.0643 13.0605C36.2315 14.1816 35.4186 15.4675 34.8029 16.2423C34.6827 16.3972 34.5534 16.5449 34.4157 16.6845C33.3086 18.0716 31.4295 22.564 26.9326 26.1374C25.0819 27.6079 22.7886 28.9226 19.9232 29.802Z" fill="#62ED2E"/>
    <path d="M19.9232 29.802L20.4555 31.2334L22.1127 35.6904C22.563 35.6077 23.0041 35.5136 23.436 35.4081C29.4603 33.941 33.661 30.3815 36.4 27.0243C38.5908 24.3392 39.8467 21.7836 40.3538 20.5318C41.5097 17.7631 43.5061 15.7451 43.8339 14.4486C43.9406 14.0281 43.8719 13.6835 43.5416 13.4143C43.2404 13.1906 42.8983 13.2096 42.5376 13.3703C41.9037 13.6523 41.2136 14.3752 40.5976 14.9892C39.9597 15.6248 39.401 16.143 39.0658 15.9337C38.8461 15.7973 38.9909 15.2503 39.2405 14.5641C39.5328 13.7592 39.9676 12.7623 40.1254 12.0105C40.2256 11.5317 40.2138 11.1524 39.9801 10.9851C39.6356 10.7382 39.2157 10.8541 38.7589 11.1918C38.2247 11.5866 37.6403 12.2836 37.0643 13.0605C36.2315 14.1816 35.4186 15.4675 34.8029 16.2423C34.6827 16.3972 34.5534 16.5449 34.4157 16.6845C33.3086 18.0716 31.4295 22.564 26.9326 26.1374C25.0819 27.6078 22.7886 28.9226 19.9232 29.802Z" fill="#62ED2E"/>
    <path d="M19.9233 29.802L20.3895 31.0553L20.4555 31.2334L22.113 35.6901C22.5633 35.6078 23.0044 35.5138 23.4363 35.4081C29.4599 33.941 33.6607 30.3812 36.4003 27.0241C38.5907 24.3387 39.8465 21.7836 40.3536 20.5317C41.5095 17.7628 43.506 15.7451 43.8342 14.4484C43.9408 14.0281 43.8718 13.6832 43.5416 13.414C43.2408 13.1902 42.8983 13.2093 42.5375 13.37C41.9036 13.6521 41.2137 14.3749 40.5977 14.9887C39.9601 15.6245 39.4012 16.1427 39.0658 15.9336C38.846 15.7971 38.9912 15.2502 39.2403 14.5639C39.5331 13.7594 39.9678 12.7622 40.1256 12.0107C40.226 11.5312 40.214 11.1523 39.9798 10.985C39.6353 10.7381 39.2157 10.8538 38.7589 11.1917C38.2247 11.5863 37.6402 12.2835 37.0647 13.0605C36.2319 14.1813 35.42 15.4677 34.8042 16.2424C34.6836 16.3968 34.554 16.5442 34.4162 16.6837C33.4568 17.8862 31.9157 21.424 28.5912 24.6722C28.0644 25.1884 27.5111 25.677 26.9334 26.136C25.0819 27.6082 22.7882 28.9228 19.9233 29.802Z" fill="#62ED2E"/>
    <path d="M43.834 14.4479C43.506 15.7444 41.5097 17.7623 40.3532 20.5308C39.8465 21.7829 38.5905 24.338 36.4001 27.0234C33.661 30.3805 29.4597 33.9403 23.4361 35.4074C23.0049 35.5128 22.5637 35.6068 22.1127 35.6894L20.4561 31.2326L20.3895 31.0546L20.3209 30.8724L19.9228 29.8011C22.788 28.9224 25.0822 27.6084 26.9325 26.1364C27.5104 25.6777 28.0637 25.1892 28.5903 24.6729C28.9189 24.3518 29.2309 24.0274 29.5259 23.7029C32.2146 20.748 33.5506 17.7679 34.4155 16.684C34.5534 16.5445 34.6828 16.397 34.803 16.2422C35.4184 15.4675 36.2308 14.1813 37.0635 13.0605C37.64 12.2824 38.2245 11.5858 38.7587 11.1907C39.2156 10.8529 39.6349 10.7371 39.9798 10.9841C40.2138 11.1516 40.2256 11.53 40.1254 12.01C39.9678 12.7616 39.5331 13.7582 39.2401 14.5629C38.9914 15.2497 38.8461 15.7961 39.0657 15.9329C39.4014 16.1415 39.96 15.6238 40.5979 14.988C41.2133 14.3739 41.903 13.6514 42.5373 13.3688C42.8983 13.2082 43.2411 13.1895 43.5418 13.4135C43.8719 13.6823 43.9404 14.0277 43.834 14.4479Z" fill="#62ED2E"/>
    <path d="M29.5262 23.7029C28.158 28.0968 24.4036 30.0886 20.3213 30.8724L19.9232 29.8011C22.7884 28.9224 25.0826 27.6084 26.9329 26.1363C27.5108 25.6777 28.0641 25.1892 28.5906 24.6729C28.9196 24.3518 29.2312 24.0273 29.5262 23.7029Z" fill="#2BC614"/>
    <path d="M23.0065 30.1452C19.0259 31.5877 14.1903 31.4362 10.8071 31.0323C7.97684 29.0229 5.80325 26.8508 4.20239 24.6478C4.01393 24.3895 3.83439 24.1299 3.66272 23.8711C9.52562 23.1536 19.1712 25.3247 23.0065 30.1452Z" fill="#2BC614"/>
    <path d="M38.7589 11.1907C38.9403 11.8181 39.6346 12.0029 40.1254 12.0095C40.2256 11.5307 40.2138 11.1514 39.9801 10.9841C39.6356 10.7374 39.2162 10.8533 38.7589 11.1907Z" fill="#2BC614"/>
    <path d="M42.5377 13.3694C42.5377 14.1233 43.3213 14.4069 43.8339 14.4477C43.9406 14.0272 43.8719 13.6826 43.5416 13.4134C43.2404 13.1898 42.8983 13.2082 42.5377 13.3694Z" fill="#2BC614"/>
    <path d="M34.8033 16.242C35.7422 16.2579 36.7638 16.5685 37.119 17.7403C37.3318 18.4429 38.8358 19.2674 39.426 19.3628C40.3913 19.5188 40.4485 18.7345 41.0964 17.815C41.3556 17.4472 41.8583 16.9097 41.382 16.7459C40.3015 16.3752 40.5148 15.2904 40.5975 14.9888C39.9597 15.6245 39.401 16.1427 39.0657 15.9334C38.8461 15.7969 38.9909 15.25 39.2405 14.5637C38.8122 14.7292 38.0458 14.9295 37.494 14.5219C36.9906 14.1502 36.9918 13.4969 37.0643 13.0607C36.2315 14.1813 35.4186 15.4672 34.8033 16.242Z" fill="#2BC614"/>
    <path d="M23.436 35.4072C29.4603 33.9402 33.661 30.3806 36.4 27.0234C36.4 27.0246 36.3979 27.0251 36.3971 27.0263C30.5194 32.5717 26.0011 33.6017 24.306 32.0132C23.2645 31.0369 23.2351 33.185 23.436 35.4072Z" fill="#2BC614"/>
    <path d="M22.112 35.9686C22.0421 35.9686 21.9748 35.9425 21.9232 35.8956C21.8716 35.8487 21.8394 35.7844 21.833 35.7151C21.8266 35.6458 21.8463 35.5766 21.8884 35.5211C21.9305 35.4656 21.9919 35.4277 22.0606 35.4149C34.6187 33.1087 39.57 21.7178 40.0928 20.4264C40.7213 18.9211 41.6005 17.6233 42.307 16.5803C43.3662 15.0168 43.9387 14.1067 43.3675 13.6332C42.7751 13.2026 41.7643 14.2149 40.9519 15.0288C40.123 15.8589 39.4682 16.5144 38.9158 16.17C38.43 15.867 38.7527 15.0322 39.2414 13.7683C39.5552 12.9558 40.1396 11.4433 39.8155 11.2111C39.7159 11.14 39.6089 11.1173 39.4786 11.14C38.5886 11.2954 37.1911 13.3275 36.1707 14.8113C35.5629 15.6953 35.0371 16.4598 34.6252 16.8703C34.3562 17.2106 34.0336 17.7497 33.6267 18.43C31.7164 21.6229 28.1615 27.5662 20.0052 30.0681C19.9342 30.0899 19.8573 30.0827 19.7916 30.0481C19.7259 30.0135 19.6767 29.9544 19.6548 29.8836C19.6329 29.8129 19.6401 29.7364 19.6748 29.6709C19.7096 29.6055 19.769 29.5565 19.8401 29.5347C27.7895 27.0961 31.2734 21.2727 33.145 18.1442C33.5678 17.4375 33.9017 16.8793 34.1962 16.5103L34.2185 16.4856C34.5942 16.1158 35.1352 15.329 35.709 14.4958C36.9047 12.757 38.26 10.786 39.3825 10.5893C39.6637 10.54 39.9196 10.5967 40.1437 10.757C40.8193 11.2408 40.3073 12.5653 39.7654 13.9679C39.5359 14.5622 39.1937 15.4474 39.2378 15.6994C39.2808 15.6994 39.389 15.6753 39.6147 15.5071C39.8874 15.3036 40.2119 14.9783 40.5556 14.6344C41.5234 13.6649 42.728 12.4585 43.7097 13.1886L43.7196 13.1965C44.7222 14.0153 43.8622 15.2843 42.7734 16.8916C42.0809 17.914 41.2191 19.1862 40.6133 20.6372C40.2162 21.6173 38.6637 25.0953 35.4064 28.5876C31.7146 32.5452 27.2591 35.0275 22.1639 35.9632C22.1468 35.9665 22.1294 35.9684 22.112 35.9686Z" fill="#371A45"/>
    <path d="M33.845 18.5581C33.533 16.6553 34.0809 13.2589 35.303 13.4873C36.6337 13.5257 35.9336 14.9515 36.1438 15.6163C36.3056 16.128 36.9773 16.9506 37.2763 18.3008" fill="#62ED2E"/>
    <path d="M33.8448 18.5579L37.2759 18.302C36.9772 16.9511 36.3057 16.1279 36.1442 15.6173C36.0242 15.2391 36.1992 14.6141 36.127 14.1386C36.072 13.7785 35.8757 13.504 35.3026 13.4878C35.0133 13.4339 34.7614 13.583 34.5507 13.8681C33.8695 14.7843 33.6069 17.1057 33.8448 18.5579Z" fill="#62ED2E"/>
    <path d="M34.551 13.8672C34.8937 14.3691 35.6818 14.3051 36.1272 14.1378C36.0722 13.7777 35.8759 13.5032 35.3028 13.487C35.0136 13.4331 34.7618 13.5822 34.551 13.8672Z" fill="#2BC614"/>
    <path d="M33.845 18.5581C33.4043 17.2104 33.4427 14.6299 34.442 13.5245C34.6526 13.2889 35.0287 13.1221 35.3571 13.2004L35.3115 13.1954C35.6072 13.2101 35.9283 13.2888 36.1493 13.5262C36.5301 13.9527 36.4287 14.5839 36.4087 15.0801C36.4006 15.283 36.3785 15.4554 36.4494 15.6388C36.6004 16.0465 36.8402 16.4859 36.983 16.9145C37.1425 17.3635 37.2492 17.8321 37.2763 18.3015C37.0184 17.6545 36.6884 17.0549 36.3059 16.4749C36.1529 16.2263 35.9569 15.9563 35.8558 15.6538C35.7952 15.4544 35.795 15.2369 35.8063 15.0451C35.8155 14.678 35.9581 14.1751 35.7378 13.9094C35.6608 13.8201 35.477 13.778 35.2814 13.7797C35.1183 13.7475 35.0009 13.8174 34.8839 13.943C34.121 14.8681 33.8498 17.3391 33.8451 18.5588L33.845 18.5581Z" fill="#371A45"/>
    <path d="M43.5239 14.1077C43.7467 14.2232 44.3657 14.3396 44.6922 13.6582C45.0677 12.8749 44.4601 12.168 43.6507 12.1886C43.0269 12.2 42.2935 13.0433 42.8883 13.7459" fill="#62ED2E"/>
    <path d="M42.888 13.7451L43.524 14.1078C43.7439 14.2219 44.3521 14.337 44.6813 13.6804C44.6853 13.6732 44.689 13.6658 44.6922 13.6583C45.0676 12.8749 44.4603 12.168 43.6511 12.1885C43.4506 12.1919 43.2399 12.2813 43.0645 12.4242C42.6927 12.726 42.4844 13.2683 42.888 13.7451Z" fill="#62ED2E"/>
    <path d="M42.888 13.7451L43.524 14.1077C43.7439 14.2219 44.3521 14.337 44.6812 13.6804C44.5036 13.7828 43.8918 14.0801 43.3377 13.6889C42.6696 13.2174 43.0636 12.4242 43.0636 12.4242C42.6927 12.726 42.4844 13.2683 42.888 13.7451Z" fill="#2BC614"/>
    <path d="M43.524 14.1078C43.9879 14.2006 44.3732 13.9694 44.4986 13.5375C44.7177 12.9561 44.2463 12.4563 43.6638 12.4524C43.3141 12.4397 42.9168 12.7506 42.8107 13.1006C42.7434 13.3121 42.7861 13.5407 42.8883 13.7459C42.7799 13.6685 42.6917 13.5664 42.631 13.4481C42.5704 13.3297 42.5391 13.1986 42.5399 13.0658C42.5454 12.6349 42.8311 12.2436 43.2103 12.0464C43.6024 11.8382 44.1208 11.9034 44.4952 12.138C45.7644 12.9397 44.652 14.917 43.5245 14.1069L43.524 14.1078Z" fill="#371A45"/>
    <path d="M39.7557 11.7195C39.9854 11.8205 40.6106 11.8971 40.8926 11.1961C41.2167 10.3903 40.5646 9.72395 39.7584 9.79628C39.1365 9.84745 38.4591 10.7359 39.0979 11.3998" fill="#62ED2E"/>
    <path d="M39.0978 11.399L39.7557 11.7193C39.9827 11.8191 40.5969 11.8952 40.883 11.2187C40.8867 11.2113 40.8899 11.2037 40.8926 11.196C41.2166 10.3903 40.565 9.7236 39.7586 9.79576C39.5588 9.81282 39.3541 9.91518 39.1884 10.0687C38.8371 10.3947 38.6642 10.9489 39.0978 11.399Z" fill="#62ED2E"/>
    <path d="M39.0978 11.399L39.7557 11.7193C39.9827 11.8191 40.5969 11.8952 40.883 11.2187C40.7117 11.3321 40.121 11.6682 39.5427 11.3133C38.8455 10.8855 39.1884 10.068 39.1884 10.068C38.8371 10.3947 38.6642 10.9489 39.0978 11.399Z" fill="#2BC614"/>
    <path d="M39.7557 11.7195C40.2248 11.7823 40.5952 11.5271 40.6915 11.0883C40.8727 10.4941 40.3699 10.0255 39.7882 10.059C39.4386 10.0687 39.0622 10.4042 38.9791 10.7604C38.9254 10.9757 38.9828 11.2012 39.098 11.3995C38.9849 11.3292 38.8903 11.2331 38.8222 11.119C38.754 11.005 38.7142 10.8764 38.7061 10.7439C38.684 10.3135 38.9436 9.90459 39.3095 9.68367C39.6875 9.45082 40.209 9.48272 40.5974 9.69289C41.9166 10.4117 40.9332 12.4564 39.7557 11.7198V11.7195Z" fill="#371A45"/>
    <path d="M35.6845 13.9469C35.9355 13.9592 36.5465 13.807 36.5571 13.052C36.5691 12.1842 35.7202 11.7952 34.9937 12.1509C34.4318 12.421 34.12 13.4923 34.9552 13.8831" fill="#62ED2E"/>
    <path d="M34.955 13.8831L35.6847 13.9469C35.9324 13.959 36.5331 13.8104 36.5564 13.0769C36.5564 13.069 36.5564 13.0607 36.5564 13.0523C36.5682 12.1844 35.7198 11.7953 34.9932 12.1508C34.8126 12.2374 34.6585 12.4066 34.5594 12.6091V12.61C34.3506 13.039 34.3881 13.618 34.955 13.8831Z" fill="#62ED2E"/>
    <path d="M34.955 13.8831L35.6847 13.9469C35.9324 13.959 36.5331 13.8104 36.5564 13.0769C36.4378 13.2437 36.0071 13.7688 35.34 13.6443C34.5347 13.4943 34.5606 12.6091 34.5606 12.6091V12.61C34.3506 13.039 34.3881 13.618 34.955 13.8831Z" fill="#2BC614"/>
    <path d="M35.6845 13.9469C36.145 13.8379 36.3979 13.4675 36.3304 13.023C36.2851 12.4036 35.6469 12.146 35.1162 12.3851C34.7932 12.5192 34.563 12.9669 34.6137 13.3292C34.6414 13.5493 34.7763 13.7386 34.9551 13.8831C34.8243 13.8579 34.7013 13.8019 34.5966 13.7198C34.4919 13.6377 34.4084 13.5318 34.3531 13.4111C34.1772 13.0174 34.2722 12.5429 34.534 12.2059C34.8028 11.8534 35.301 11.697 35.7393 11.7543C37.2298 11.9541 37.0491 14.2132 35.6845 13.9469Z" fill="#371A45"/>
    <path d="M40.3546 16.7038C39.3462 16.5359 38.5199 15.9532 37.7073 15.3822C38.5994 15.1591 39.8873 15.9605 40.3546 16.7038Z" fill="#371A45"/>
    <path d="M27.8462 37.3079C27.205 37.511 26.5483 37.7074 25.876 37.8969C14.8136 34.7781 7.94242 29.7939 4.20172 24.6473C4.01326 24.389 3.83372 24.1294 3.66205 23.8706C9.89518 23.1077 20.4032 25.6106 23.6611 31.0896C23.6618 31.0901 27.1748 35.8156 27.8462 37.3079Z" fill="#62ED2E"/>
    <path d="M27.8462 37.3079C27.205 37.511 25.9128 36.1322 25.2406 36.3218C22.8014 35.6343 21.2016 36.4307 19.1592 35.58C11.9362 32.5727 7.11749 28.6595 4.20258 24.6473C4.01412 24.389 3.83457 24.1294 3.6629 23.8706C9.89603 23.1077 20.404 25.6106 23.662 31.0896C23.662 31.0896 25.0231 32.9209 26.2133 34.6636C26.9343 35.7214 27.5925 36.745 27.8462 37.3079Z" fill="#62ED2E"/>
    <path d="M23.0065 30.1452C19.0259 31.5877 14.1903 31.4362 10.8071 31.0323C7.97684 29.0229 5.80325 26.8508 4.20239 24.6478C4.01393 24.3895 3.83439 24.1299 3.66272 23.8711C9.52562 23.1536 19.1712 25.3247 23.0065 30.1452Z" fill="#2BC614"/>
    <path d="M16.8712 29.7911C11.0448 29.7622 6.85883 27.7658 4.20227 24.6476C1.67764 21.1743 0.578247 17.627 0.578247 14.5288C0.578247 6.83962 6.83844 0.606445 14.5607 0.606445C19.3578 0.606445 22.4118 2.42851 25.8527 5.32683C27.8663 7.40802 29.3863 10.2867 30.2044 14.0141C31.7584 21.0954 30.4247 29.1324 19.095 29.7141" fill="#62ED2E"/>
    <path d="M29.8754 23.4503C28.4952 26.8504 25.2885 29.3963 19.0946 29.7138L16.8714 29.7914C11.7863 29.7655 7.95084 28.2419 5.29154 25.7826C4.90621 25.4262 4.54253 25.0472 4.20243 24.6478C1.6778 21.1743 0.578064 17.6268 0.578064 14.5289C0.578064 6.83945 6.8386 0.606445 14.5605 0.606445C19.3576 0.606445 22.412 2.42868 25.8529 5.327C27.8666 7.40819 29.3861 10.2864 30.2045 14.0138C30.9085 17.2243 31.02 20.6306 29.8754 23.4503Z" fill="#62ED2E"/>
    <g opacity="0.7">
        <path d="M28.927 10.01C28.1975 8.56735 27.3165 7.33074 26.3141 6.29356C22.8999 3.41759 19.8692 1.60934 15.1079 1.60934C14.6002 1.6092 14.0929 1.63665 13.5883 1.69157C13.7253 1.79221 13.8225 1.9164 13.8708 2.06294C14.1132 2.79647 13.0382 3.80773 11.4695 4.32069C9.90086 4.83365 8.43381 4.65709 8.19121 3.92356C8.14153 3.77139 8.14786 3.60814 8.2032 3.43908C4.03762 5.82256 1.23201 10.2975 1.23201 15.4257C1.23201 18.3428 2.21387 21.6601 4.45479 24.9361C4.36913 24.8411 4.28501 24.745 4.20243 24.6478C1.6778 21.1743 0.578064 17.6268 0.578064 14.5289C0.578064 6.83945 6.8386 0.606445 14.5605 0.606445C19.3576 0.606445 22.412 2.42868 25.8529 5.327C27.0753 6.59021 28.1154 8.14718 28.927 10.01Z" fill="white"/>
    </g>
    <path d="M29.8754 23.4503C28.4952 26.8504 25.2885 29.3963 19.0946 29.7138L16.8713 29.7914C11.7862 29.7655 7.9508 28.2419 5.2915 25.7826C9.08566 27.4932 15.1836 29.4124 22.3448 27.9258C26.1066 27.1449 28.4342 25.3547 29.8754 23.4503Z" fill="#2BC614"/>
    <path d="M16.8712 29.7911C14.5826 29.939 12.2399 29.6737 10.061 28.9381C9.43878 28.7054 8.79323 28.4523 8.20422 28.1445C8.08977 28.0802 7.72177 27.8992 7.60972 27.8259C7.31419 27.6481 6.9371 27.4296 6.65767 27.2274C5.65685 26.5467 4.7509 25.7371 3.96342 24.8197C1.71325 21.7353 0.151968 17.9822 0.262472 14.1166C0.394049 6.58475 6.7543 0.330769 14.314 0.257927C15.7665 0.236774 17.2251 0.381434 18.6327 0.760654C21.4596 1.50016 23.8957 3.21714 26.0884 5.07657C28.0313 7.08748 29.3308 9.6279 30.1017 12.2911C30.8136 14.7713 31.1982 17.3759 30.9876 19.9561C30.9505 20.4225 30.874 20.9127 30.7942 21.3744C30.7793 21.454 30.6733 21.9202 30.6549 22.0118C29.9182 25.0328 28.0277 27.3772 25.1693 28.6526C25.0759 28.6916 24.6502 28.8728 24.5664 28.9064C24.283 28.997 23.9858 29.1152 23.7 29.1942C23.5307 29.2454 23.1084 29.346 22.9448 29.3917C22.787 29.4246 22.3452 29.5067 22.1804 29.5386C21.1606 29.7014 20.1269 29.7602 19.0951 29.7141C19.9295 29.57 20.7798 29.4448 21.6021 29.2455C21.9825 29.174 22.45 29.0301 22.8259 28.9359C24.8045 28.3498 26.7508 27.4095 28.0996 25.8116C30.0911 23.5217 30.5838 20.3447 30.3782 17.4066C30.0587 13.1656 28.5451 8.59907 25.63 5.58834C23.4884 3.78606 21.1755 2.15062 18.4496 1.43994C11.8807 -0.26493 5.11404 2.61701 2.1909 8.79798C0.590559 12.1492 0.527683 16.1052 1.8193 19.5697C2.42116 21.2865 3.41039 23.0454 4.4272 24.4578C5.36213 25.5523 6.47006 26.4878 7.70738 27.2273C10.4657 28.8922 13.6844 29.5371 16.8714 29.7911H16.8712Z" fill="#371A45"/>
    <path d="M29.1423 10.7935C30.0503 11.7024 30.9534 14.2906 29.7591 17.3247C28.5648 20.3588 25.6675 21.0569 24.6548 19.9518C23.8773 19.1028 23.1259 16.6304 24.3205 13.5972C25.5152 10.5639 28.2122 9.8628 29.1423 10.7935Z" fill="#371A45"/>
    <g opacity="0.7">
        <path d="M24.0426 18.8612C23.9138 17.7642 24.0288 16.4015 24.6195 14.902C25.8143 11.8684 28.512 11.1676 29.4416 12.0982C29.7483 12.4053 30.0548 12.9044 30.2797 13.5482C30.1223 12.2688 29.6325 11.285 29.1419 10.7937C28.2123 9.86315 25.5147 10.5639 24.3197 13.5967C23.4634 15.7693 23.607 17.6543 24.0426 18.8612Z" fill="white"/>
    </g>
    <g opacity="0.35">
        <path d="M24.6536 19.9515C25.6665 21.0569 28.5633 20.3576 29.7577 17.3244C30.6315 15.1059 30.3834 13.125 29.8317 11.8655C29.8902 12.8549 29.7461 13.9938 29.2705 15.2028C28.0763 18.2362 25.1796 18.9356 24.1664 17.8298C24.0059 17.6545 23.8463 17.4092 23.7048 17.104C23.7737 18.4511 24.2099 19.4665 24.6536 19.9515Z" fill="#111A28"/>
    </g>
    <path d="M10.9537 15.0006C10.2797 16.2442 10.3458 19.0117 13.082 21.2166C15.8182 23.4214 19.542 22.722 20.2537 21.2507C20.8 20.1216 20.6059 17.53 17.8699 15.3251C15.1338 13.1202 11.6439 13.7272 10.9537 15.0006Z" fill="#371A45"/>
    <g opacity="0.7">
        <path d="M10.813 18.0178C10.7958 17.3273 10.9394 16.73 11.1678 16.3082C11.858 15.0349 15.3481 14.4281 18.084 16.6323C19.4407 17.7253 20.1729 18.9143 20.4996 19.9719C20.4835 18.6754 19.8268 16.9013 17.8703 15.3247C15.1343 13.1205 11.6444 13.7265 10.9541 15.0006C10.5901 15.6715 10.4413 16.786 10.813 18.0178Z" fill="white"/>
    </g>
    <g opacity="0.35">
        <path d="M13.0811 21.2063C15.8165 23.4105 19.5401 22.7118 20.2528 21.2413C20.5644 20.5963 20.6347 19.4742 20.1279 18.2193C20.0936 18.5617 20.0133 18.8589 19.9005 19.092C19.1887 20.5634 15.4644 21.2621 12.7292 19.0579C11.6382 18.1784 10.9716 17.2103 10.6067 16.2845C10.5072 17.682 11.0808 19.5946 13.0811 21.2063Z" fill="#111A28"/>
    </g>
    <path d="M25.9373 20.7249C25.3237 20.7249 24.7972 20.5221 24.4468 20.1393C23.6342 19.2522 22.8105 16.6637 24.0588 13.4947C24.8786 11.4135 26.3716 10.424 27.4969 10.1917C28.255 10.0349 28.9273 10.1827 29.3409 10.5967C30.2749 11.5318 31.2851 14.2132 30.0191 17.4267C29.2059 19.4909 27.6669 20.4568 26.4976 20.672C26.3128 20.7066 26.1253 20.7243 25.9373 20.7249ZM28.0657 10.6898C27.9127 10.6906 27.7602 10.7069 27.6105 10.7384C26.6297 10.9409 25.3187 11.8249 24.5806 13.6985C23.4252 16.6326 24.1393 18.9752 24.8609 19.7631C25.1761 20.1072 25.7501 20.2408 26.3955 20.1229C27.4166 19.9353 28.7676 19.0745 29.4964 17.2229C30.6028 14.4143 29.8391 11.8875 28.9425 10.9904C28.7467 10.7939 28.4342 10.6898 28.0657 10.6898Z" fill="#371A45"/>
    <path d="M17.0747 22.8993C15.7843 22.8993 14.2479 22.5151 12.9055 21.4336C9.98667 19.0815 10.0079 16.1582 10.7078 14.8681C11.012 14.3067 11.7374 13.8747 12.6979 13.6832C14.4944 13.3249 16.4941 13.8575 18.047 15.1088C20.9252 17.4288 21.0834 20.1816 20.507 21.3725C20.193 22.0207 19.4076 22.5287 18.3524 22.7645C17.9328 22.8558 17.5043 22.901 17.0747 22.8993ZM13.7853 14.1386C13.4572 14.1373 13.1297 14.1681 12.8077 14.2306C12.023 14.3872 11.4224 14.7253 11.201 15.1332C10.5418 16.3495 10.7444 18.9735 13.2588 20.9996C14.9284 22.345 16.9212 22.512 18.2293 22.2198C19.103 22.0245 19.7659 21.6171 20.0014 21.1302C20.5033 20.0932 20.3204 17.6593 17.6939 15.5428C16.4053 14.5049 14.9585 14.1386 13.7848 14.1386H13.7853Z" fill="#371A45"/>
    <path d="M23.3258 21.0353C23.3968 20.8168 23.3556 20.6078 23.2337 20.5685C23.1119 20.5292 22.9554 20.6745 22.8844 20.8931C22.8133 21.1116 22.8545 21.3206 22.9764 21.3599C23.0983 21.3992 23.2547 21.2539 23.3258 21.0353Z" fill="#371A45"/>
    <path d="M22.6242 21.4347C22.7194 21.3493 22.6712 21.1417 22.5167 20.9712C22.3621 20.8007 22.1597 20.7317 22.0646 20.8172C21.9695 20.9026 22.0177 21.1101 22.1722 21.2807C22.3267 21.4512 22.5291 21.5202 22.6242 21.4347Z" fill="#371A45"/>
    <path d="M23.4791 22.7396C22.783 23.8858 20.9684 24.2984 20.0886 23.1287C20.0664 23.1 20.0563 23.0639 20.0603 23.0279C20.0643 22.992 20.0822 22.9589 20.1102 22.9358C20.1382 22.9127 20.1741 22.9013 20.2103 22.9041C20.2465 22.9068 20.2803 22.9234 20.3045 22.9504C20.4994 23.1627 20.7413 23.3269 21.0109 23.4301C21.8692 23.7448 22.8545 23.3747 23.4791 22.7396Z" fill="#371A45"/>
    <path d="M20.7088 22.5401C20.5159 22.7012 20.3424 22.8441 20.2161 23.0451C20.0845 23.2406 20.042 23.475 19.9786 23.7046C19.6281 23.1916 20.0958 22.4549 20.7088 22.5401Z" fill="#371A45"/>
    <path d="M22.8247 14.1854C22.7219 12.0767 24.3152 9.94538 26.4597 9.67004C24.4912 10.6149 23.4079 12.1161 22.8247 14.1854Z" fill="#371A45"/>
    <path d="M13.6481 12.8704C15.3133 12.2836 17.2802 12.726 18.5781 13.9064C19.0039 14.3024 19.3607 14.7661 19.6338 15.2785C19.2213 14.8754 18.8164 14.4897 18.3686 14.1611C17.0129 13.1634 15.3173 12.7759 13.6481 12.8704Z" fill="#371A45"/>
    <path d="M23.5463 7.62894C23.5016 7.49673 23.9123 2.33589 27.4463 1.66564C29.2949 1.31491 30.6645 2.44779 31.2105 2.90702C31.5025 2.7781 31.8287 2.74732 32.1398 2.81933C32.4509 2.89133 32.7301 3.06221 32.935 3.30614C33.14 3.55007 33.2596 3.8538 33.2759 4.17143C33.2921 4.48905 33.2041 4.80332 33.0251 5.06673C32.8461 5.33015 32.5859 5.5284 32.2838 5.63152C31.9816 5.73465 31.6539 5.73704 31.3503 5.63835C31.0467 5.53965 30.7835 5.34523 30.6007 5.08447C30.4178 4.8237 30.3252 4.51076 30.3368 4.19292C30.3389 4.13042 30.3453 4.06813 30.3558 4.00647C29.483 3.56191 26.2488 2.66427 25.6173 7.79356L23.5463 7.62894Z" fill="#62ED2E"/>
    <path d="M24.0883 7.16475C24.1527 6.66339 24.3149 5.79338 24.6816 4.89677C25.3262 3.32069 26.2882 2.40104 27.5408 2.16358C27.6697 2.13875 27.7999 2.12166 27.9309 2.1124C29.363 2.01602 30.4273 2.9111 30.882 3.2934L31.1252 3.4981L31.4165 3.36931C31.5178 3.32446 31.6264 3.29778 31.737 3.2905C31.7713 3.28828 31.8056 3.28777 31.8398 3.28896C32.0871 3.29645 32.322 3.39847 32.4957 3.57384C32.6694 3.74921 32.7687 3.98446 32.7728 4.23075C32.7769 4.47704 32.6856 4.71545 32.5178 4.89649C32.3501 5.07753 32.1188 5.18729 31.8719 5.20297C31.8377 5.20538 31.8033 5.2059 31.7691 5.20451C31.5143 5.19487 31.2737 5.08494 31.1003 4.89885C30.9268 4.71276 30.8346 4.46574 30.8439 4.21202C30.8454 4.17159 30.8495 4.13131 30.8563 4.09141L30.9185 3.7255L30.5866 3.55644C30.368 3.44505 29.5783 3.08681 28.598 3.15283C27.3155 3.23932 25.7128 4.03358 25.1811 7.25107L24.0883 7.16475Z" fill="#62ED2E"/>
    <path d="M32.7669 4.28283C32.7574 4.53676 32.647 4.77654 32.46 4.94942C32.2729 5.1223 32.0246 5.21413 31.7696 5.2047C31.5146 5.19526 31.2737 5.08534 31.1001 4.89912C30.9265 4.7129 30.8343 4.46562 30.8437 4.21169C30.8453 4.17131 30.8496 4.13107 30.8566 4.09126L30.8622 4.05612C30.9262 4.23823 31.0438 4.39694 31.1996 4.51157C31.3555 4.62619 31.5424 4.69141 31.736 4.69873C31.7699 4.70021 31.8039 4.69981 31.8378 4.69753C32.0481 4.68378 32.248 4.60132 32.4065 4.46293C32.565 4.32454 32.6733 4.13796 32.7144 3.9321C32.754 4.04466 32.7718 4.16367 32.7669 4.28283Z" fill="#2BC614"/>
    <g opacity="0.7">
        <path d="M33.2675 4.0904C33.0239 3.66393 32.5159 2.98157 31.9877 2.96195C31.7571 2.95359 31.314 3.13408 31.0684 3.35601C30.5227 2.89644 29.2784 1.91265 27.6302 2.23268C24.7658 2.7888 23.5462 7.6286 23.5462 7.6286C23.5015 7.4969 23.912 2.33606 27.446 1.6653C29.2946 1.31474 30.6649 2.44779 31.2106 2.90736C31.4144 2.81702 31.6364 2.77453 31.8594 2.78317C32.2127 2.79621 32.5494 2.9355 32.808 3.17556C33.0666 3.41562 33.2297 3.74039 33.2675 4.0904Z" fill="white"/>
    </g>
    <path d="M23.5464 7.62892C23.4436 5.7695 24.1604 3.36691 25.6584 2.16324C26.9024 1.12025 28.7435 1.0092 30.1472 1.7951C30.6082 2.03853 31.0238 2.35685 31.3917 2.69377L31.0968 2.6518C31.8075 2.32649 32.7105 2.5544 33.1837 3.17261C34.2802 4.61665 32.7823 6.54141 31.1047 5.84302C30.3814 5.53954 29.9429 4.72873 30.079 3.96005C30.079 3.95903 30.2277 4.25517 30.2277 4.255C28.326 3.48002 26.8814 4.14753 26.1222 6.04108C25.8952 6.58338 25.735 7.21456 25.6168 7.79269L25.6511 7.33312L25.7085 6.87458C25.8567 5.94606 26.1399 5.00099 26.7878 4.28605C27.6917 3.24818 29.3073 3.10097 30.4826 3.75722L30.6488 3.85105L30.6317 4.05234C30.5926 4.31028 30.6317 4.58117 30.7605 4.80993C31.0058 5.27991 31.5873 5.53067 32.0994 5.39352C32.9202 5.19461 33.2719 4.17414 32.7422 3.51703C32.3555 3.02966 31.7057 2.93839 31.17 3.23044C30.7555 2.89967 30.3291 2.58647 29.8568 2.35361C28.6484 1.72107 27.1205 1.7876 26.029 2.63219C24.6173 3.69718 23.8169 5.9278 23.5464 7.62892Z" fill="#371A45"/>
    <path d="M14.0938 10.7674C12.6748 7.35241 10.9134 7.08373 9.91524 7.96653C9.41566 8.40768 9.15679 9.24766 9.04594 9.85513C9.32214 10.0267 9.53332 10.2847 9.64632 10.5887C9.75933 10.8927 9.76776 11.2254 9.67031 11.5347C9.57286 11.844 9.37503 12.1123 9.10787 12.2975C8.84072 12.4828 8.51936 12.5744 8.19423 12.5581C7.8691 12.5418 7.5586 12.4185 7.31147 12.2075C7.06434 11.9965 6.89456 11.7098 6.82878 11.3924C6.763 11.0749 6.80494 10.7447 6.94802 10.4535C7.0911 10.1624 7.32722 9.92675 7.61932 9.78365C7.69025 8.71849 8.10588 6.78452 9.61936 6.03068C12.6845 4.5022 15.0766 7.84286 15.8513 9.63729L14.0938 10.7674Z" fill="#62ED2E"/>
    <path d="M8.33561 12.053C8.3014 12.0554 8.26709 12.0559 8.23282 12.0545C8.01881 12.0466 7.81358 11.9678 7.64963 11.8306C7.48569 11.6934 7.37238 11.5056 7.32767 11.2971C7.28295 11.0885 7.30938 10.8711 7.40276 10.6792C7.49614 10.4873 7.65114 10.3319 7.84323 10.2376L8.10638 10.1086L8.12591 9.81709C8.16669 9.21611 8.40911 7.19889 9.84704 6.48241C10.2344 6.28947 10.6245 6.17842 11.0067 6.15266C12.9549 6.02182 14.5043 8.07367 15.203 9.45169L14.3184 10.0206C13.0446 7.32256 11.6245 6.98411 10.864 7.03529C10.3954 7.06685 9.95069 7.25706 9.57772 7.58766C8.91897 8.17005 8.64845 9.20178 8.546 9.76489L8.48432 10.1033L8.77763 10.285C8.95005 10.3921 9.08399 10.5508 9.16023 10.7383C9.23647 10.9259 9.2511 11.1326 9.20201 11.329C9.15292 11.5253 9.04264 11.7011 8.887 11.8312C8.73135 11.9613 8.53832 12.0389 8.33561 12.053Z" fill="#62ED2E"/>
    <path d="M9.1941 10.8398C9.22138 10.935 9.23329 11.034 9.2294 11.133C9.22146 11.3695 9.12564 11.5947 8.96052 11.7648C8.79539 11.935 8.5727 12.0381 8.3356 12.0542C8.30137 12.0563 8.26706 12.0567 8.2328 12.0552C7.97799 12.0455 7.73745 11.9355 7.56399 11.7494C7.39053 11.5633 7.29834 11.3163 7.30765 11.0625C7.30913 11.0299 7.31205 10.9978 7.31639 10.9663C7.37169 11.1616 7.48768 11.3345 7.64771 11.4601C7.80775 11.5858 8.00363 11.6578 8.20727 11.6657C8.24155 11.667 8.27586 11.6664 8.31007 11.6639C8.53023 11.649 8.73846 11.5588 8.89955 11.4086C9.06063 11.2585 9.16468 11.0575 9.1941 10.8398Z" fill="#2BC614"/>
    <g opacity="0.7">
        <path d="M15.2891 8.56819C14.1175 6.92047 12.1524 5.29628 9.8352 6.487C8.69469 7.07349 8.07793 9.10777 8.02858 9.94434C6.93211 10.1903 6.97477 11.0414 6.95301 11.611C6.95112 11.6589 6.95301 11.7067 6.95472 11.7536C6.86771 11.581 6.81586 11.3929 6.80218 11.2002C6.7885 11.0075 6.81326 10.814 6.87502 10.6309C6.93678 10.4478 7.03432 10.2786 7.16203 10.1332C7.28974 9.98781 7.44509 9.869 7.61912 9.78364C7.69022 8.71865 8.10602 6.78417 9.61933 6.03067C12.1392 4.77411 14.2028 6.80822 15.2891 8.56819Z" fill="white"/>
    </g>
    <path d="M14.0938 10.7674C13.5703 9.76555 12.9717 8.72035 12.0078 8.08695C11.3639 7.6685 10.5762 7.66781 10.0466 8.24901C9.6555 8.68709 9.46653 9.32731 9.3221 9.90373C9.3221 9.90731 9.19429 9.61697 9.19412 9.61765C9.52284 9.8224 9.77446 10.1295 9.90991 10.4912C10.2712 11.4152 9.71306 12.5132 8.7521 12.7722C7.80005 13.0588 6.74075 12.4271 6.55624 11.4508C6.38594 10.6936 6.79249 9.86739 7.49561 9.53304L7.3397 9.76504C7.35059 9.49309 7.37966 9.22216 7.42674 8.95406C7.52953 8.34693 7.7245 7.74628 8.03203 7.20756C8.08428 7.1018 8.19324 6.95253 8.25612 6.85154L8.38735 6.68454C8.43038 6.62818 8.47672 6.57441 8.52613 6.5235L8.67278 6.36843L8.83417 6.22667C9.75195 5.46857 11.0814 5.21149 12.2093 5.60556C13.4916 6.04824 14.4516 7.11442 15.1499 8.23264C15.424 8.68129 15.6661 9.14887 15.8506 9.63778C15.1464 8.27204 14.1545 6.9788 12.7861 6.25414C11.9146 5.78519 10.8459 5.72872 9.9512 6.16202C9.70581 6.27225 9.47692 6.41577 9.27105 6.58849C9.23164 6.62636 9.11874 6.73162 9.07745 6.77085C9.03719 6.81623 8.94039 6.92865 8.90116 6.97198C8.8686 7.01753 8.77677 7.14257 8.74234 7.18931L8.64657 7.34284C8.1732 8.13011 7.97001 9.05164 7.88229 9.96241C7.88229 9.96241 7.74266 10.0349 7.74198 10.0351C6.98472 10.3962 6.85006 11.4607 7.49612 11.9969C7.99691 12.4435 8.84188 12.3444 9.22839 11.7976C9.63614 11.2645 9.47646 10.4349 8.8979 10.0917L8.7396 9.99312C8.7987 9.58114 8.87409 9.17429 9.03325 8.78006C9.44751 7.62687 10.5851 6.92592 11.77 7.47488C13.0318 8.1093 13.6525 9.5112 14.0935 10.7673L14.0938 10.7674Z" fill="#371A45"/>
    <path d="M14.0938 10.7674C13.5703 9.76555 12.9717 8.72035 12.0078 8.08695C11.3639 7.6685 10.5762 7.66781 10.0466 8.24901C9.6555 8.68709 9.46653 9.32731 9.3221 9.90373C9.3221 9.90731 9.19429 9.61697 9.19412 9.61765C9.52284 9.8224 9.77446 10.1295 9.90991 10.4912C10.2712 11.4152 9.71306 12.5132 8.7521 12.7722C7.80005 13.0588 6.74075 12.4271 6.55624 11.4508C6.38594 10.6936 6.79249 9.86739 7.49561 9.53304L7.3397 9.76504C7.35059 9.49309 7.37966 9.22216 7.42674 8.95406C7.52953 8.34693 7.7245 7.74628 8.03203 7.20756C8.08428 7.1018 8.19324 6.95253 8.25612 6.85154L8.38735 6.68454C8.43038 6.62818 8.47672 6.57441 8.52613 6.5235L8.67278 6.36843L8.83417 6.22667C9.75195 5.46857 11.0814 5.21149 12.2093 5.60556C13.4916 6.04824 14.4516 7.11442 15.1499 8.23264C15.424 8.68129 15.6661 9.14887 15.8506 9.63778C15.1464 8.27204 14.1545 6.9788 12.7861 6.25414C11.9146 5.78519 10.8459 5.72872 9.9512 6.16202C9.70581 6.27225 9.47692 6.41577 9.27105 6.58849C9.23164 6.62636 9.11874 6.73162 9.07745 6.77085C9.03719 6.81623 8.94039 6.92865 8.90116 6.97198C8.8686 7.01753 8.77677 7.14257 8.74234 7.18931L8.64657 7.34284C8.1732 8.13011 7.97001 9.05164 7.88229 9.96241C7.88229 9.96241 7.74266 10.0349 7.74198 10.0351C6.98472 10.3962 6.85006 11.4607 7.49612 11.9969C7.99691 12.4435 8.84188 12.3444 9.22839 11.7976C9.63614 11.2645 9.47646 10.4349 8.8979 10.0917L8.7396 9.99312C8.7987 9.58114 8.87409 9.17429 9.03325 8.78006C9.44751 7.62687 10.5851 6.92592 11.77 7.47488C13.0318 8.1093 13.6525 9.5112 14.0935 10.7673L14.0938 10.7674Z" fill="#371A45"/>
    <g clip-path="url(#clip0_216_2584)">
        <path d="M5.12505 32.2125H73.1272C82.4317 32.2125 89.9777 39.8384 89.9777 49.2499C89.9777 58.6615 82.4317 66.2874 73.1272 66.2874H5.12505V32.2125Z" fill="url(#paint0_linear_216_2584)" stroke="#371A45" stroke-width="0.4"/>
        <path d="M9.59839 49.9394V46.9716L20.6471 41.6295L21.768 44.0577L12.454 48.4555L21.768 52.8533L20.6471 55.2815L9.59839 49.9394ZM25.1073 53.231V47.5921C25.1073 44.7502 26.5129 43.3292 29.324 43.3292H33.8609V37.5284H36.9834V57.4939H29.324C26.5129 57.4939 25.1073 56.073 25.1073 53.231ZM28.2298 53.5008C28.2298 54.3282 28.639 54.7419 29.4574 54.7419H33.8609V46.0812H29.4574C28.639 46.0812 28.2298 46.4949 28.2298 47.3223V53.5008ZM40.7708 53.231V47.5921C40.7708 44.7502 42.1763 43.3292 44.9874 43.3292H48.4568C51.2502 43.3292 52.6468 44.7502 52.6468 47.5921V51.5852H43.8932V53.5008C43.8932 54.3282 44.3024 54.7419 45.1209 54.7419H52.1131V56.4417L50.6986 57.4939H44.9874C42.1763 57.4939 40.7708 56.073 40.7708 53.231ZM43.8932 49.13H49.5244V47.3223C49.5244 46.4949 49.1151 46.0812 48.2967 46.0812H45.1209C44.3024 46.0812 43.8932 46.4949 43.8932 47.3223V49.13ZM54.9447 43.8149L55.265 43.3292H57.9604L61.4832 54.7419H61.8835L65.4063 43.3292H68.1018L68.4221 43.8149L64.0453 57.4939H59.3482L54.9447 43.8149ZM70.4761 52.8533L79.7902 48.4555L70.4761 44.0577L71.597 41.6295L82.6458 46.9716V49.9394L71.597 55.2815L70.4761 52.8533ZM92.6901 40.874V37.6633H95.9727V40.874H92.6901ZM92.7701 57.4939V43.3292H95.8926V57.4939H92.7701ZM99.8854 57.4939V43.3292H107.571C110.365 43.3292 111.761 44.7502 111.761 47.5921V57.4939H108.639V47.3223C108.639 46.4949 108.23 46.0812 107.411 46.0812H103.008V57.4939H99.8854ZM115.573 40.874V37.6633H118.855V40.874H115.573ZM115.653 57.4939V43.3292H118.775V57.4939H115.653ZM122.661 53.231V38.8775H125.784V43.3292H130.561V46.0812H125.784V53.5008C125.784 54.3282 126.193 54.7419 127.011 54.7419H130.828V56.4417L129.413 57.4939H126.878C124.067 57.4939 122.661 56.073 122.661 53.231ZM132.298 43.8149L132.618 43.3292H135.313L138.836 54.7419H139.237L142.759 43.3292H145.455L145.775 43.8149L139.664 62.89H136.968L136.648 62.4044L138.329 57.4939H136.701L132.298 43.8149Z" fill="white"/>
    </g>
    <path d="M18.4692 36.784C17.9463 36.763 17.5524 36.5738 17.3758 36.2941C17.0765 35.8164 17.2388 34.7461 16.9783 34.2603C16.7625 35.4203 16.4099 36.6305 15.8808 36.6673C15.2983 36.7079 15.2029 36.3944 15.0621 36.2905C14.8519 36.1349 14.7396 35.9003 14.6745 35.6252C14.5084 34.928 14.6403 33.9621 14.2449 33.304C13.8916 33.1985 13.5818 33.1274 13.3134 32.8992C13.0735 32.8336 12.8206 32.7366 12.5928 32.5713C12.8746 31.9166 13.3821 31.495 13.9946 31.269C15.6802 30.6452 18.1642 31.4908 18.9522 32.992C19.4147 33.804 19.4989 36.0085 18.4692 36.784Z" fill="#62ED2E"/>
    <path d="M14.9824 35.5793C14.882 35.6078 14.7783 35.623 14.674 35.6246C14.5078 34.9274 14.6397 33.9616 14.2443 33.3034C13.891 33.198 13.5813 33.1269 13.3128 32.8986C13.073 32.8331 12.8201 32.736 12.5922 32.5707C12.8741 31.916 13.3815 31.4945 13.994 31.2685C13.9426 31.4732 13.94 31.8144 14.259 32.2183C15.1708 33.3698 14.908 34.6874 14.9824 35.5793Z" fill="#2BC614"/>
    <path d="M16.4203 32.4272C16.5959 32.5339 17.157 32.9731 17.4416 33.8602C17.7416 34.7974 17.6777 36.0408 17.6345 36.5495C17.5311 36.4836 17.4431 36.3963 17.3763 36.2937C17.0767 35.816 17.2393 34.7462 16.979 34.2599C16.7671 35.3965 16.4238 36.5799 15.9137 36.6637C15.7972 36.4207 15.769 36.1459 15.9324 35.8598C16.4363 34.9769 16.7447 33.2573 16.4203 32.4272Z" fill="#2BC614"/>
    <path d="M18.4694 37.0634H18.4581C17.8524 37.039 17.3715 36.8126 17.1389 36.4421C17.0102 36.2374 16.9523 35.9694 16.9184 35.6848C16.6443 36.5105 16.3121 36.9173 15.9007 36.946C15.3084 36.9874 15.071 36.714 14.9434 36.5673C14.9262 36.548 14.9034 36.5214 14.8944 36.5139C14.3872 36.1386 14.3389 35.4578 14.2922 34.7998C14.2605 34.3518 14.2276 33.8899 14.055 33.5388L14.0496 33.5371C13.7425 33.4477 13.4516 33.3629 13.1813 33.1517C12.8835 33.0646 12.6366 32.947 12.4275 32.7959C12.3763 32.7586 12.3393 32.7052 12.3226 32.6443C12.3058 32.5834 12.3103 32.5187 12.3353 32.4607C12.7725 31.4452 13.7665 30.8341 15.0626 30.7845C16.7644 30.7202 18.5405 31.6101 19.1987 32.8566C19.7057 33.7549 19.8177 36.1191 18.6381 37.0071C18.5895 37.0435 18.5303 37.0633 18.4694 37.0634ZM16.9789 33.9811C17.0297 33.9811 17.0796 33.9949 17.1231 34.021C17.1667 34.047 17.2024 34.0844 17.2263 34.129C17.3786 34.4136 17.4077 34.801 17.4385 35.2111C17.4647 35.5601 17.4945 35.9557 17.614 36.1457C17.7334 36.3358 18.0191 36.4646 18.3767 36.4984C19.1836 35.7727 19.1062 33.8269 18.7086 33.1273L18.7041 33.1192C18.1511 32.0663 16.5625 31.285 15.0844 31.3423C14.4977 31.3648 13.4787 31.5451 12.9567 32.467C13.0942 32.5362 13.2387 32.5907 13.3877 32.6297C13.4273 32.6406 13.4639 32.6599 13.4951 32.6864C13.6882 32.8501 13.917 32.9168 14.2067 33.0011L14.3266 33.0361C14.3936 33.0561 14.4507 33.1003 14.4866 33.1601C14.772 33.6345 14.8121 34.2067 14.852 34.7602C14.8916 35.317 14.929 35.8431 15.2305 36.0666C15.2811 36.1065 15.327 36.1518 15.3676 36.2017C15.4649 36.3138 15.549 36.4105 15.862 36.3894C15.8791 36.388 16.3074 36.3343 16.7037 34.2099C16.7156 34.1458 16.7497 34.0878 16.8001 34.0461C16.8504 34.0044 16.9139 33.9816 16.9794 33.9817L16.9789 33.9811Z" fill="#371A45"/>
    <path d="M15.9023 35.765C16.1467 35.8381 16.6798 36.1902 16.4335 36.9167C16.1491 37.7516 15.2037 37.837 14.6296 37.2509C14.1841 36.8024 14.2503 35.6714 15.1833 35.5791L15.9023 35.765Z" fill="#62ED2E"/>
    <path d="M16.0688 36.8129C15.9217 37.1833 15.509 37.2246 15.2521 37.1222C15.9374 36.8803 15.6796 35.8309 15.886 35.9182C16.1125 36.0144 16.2247 36.4875 16.0688 36.8129Z" fill="#2BC614"/>
    <path d="M15.9024 35.765C17.2959 35.9748 16.6961 38.1898 15.2082 37.8783C14.7706 37.7855 14.3481 37.4689 14.2111 37.0414C14.0754 36.6319 14.1456 36.1463 14.447 35.8292C14.5408 35.7323 14.6564 35.6591 14.7844 35.6156C14.9123 35.5722 15.0488 35.5599 15.1825 35.5796C14.9617 35.6562 14.7672 35.7918 14.6651 35.9933C14.4912 36.3235 14.5584 36.8321 14.8229 37.071C15.2512 37.4818 15.9546 37.4499 16.2091 36.8689C16.4249 36.4653 16.3076 36.0233 15.9024 35.765Z" fill="#371A45"/>
    <path d="M18.5192 36.041C18.7662 36.1045 19.3131 36.4351 19.095 37.1707C18.8443 38.0163 17.9033 38.1393 17.306 37.5763C16.8434 37.1459 16.8638 36.0131 17.7924 35.8844" fill="#62ED2E"/>
    <path d="M18.519 36.0411C19.9199 36.1954 19.4099 38.4324 17.9101 38.1804C17.4689 38.1048 17.0341 37.8051 16.8801 37.3838C16.7281 36.9795 16.7788 36.4919 17.0672 36.163C17.1571 36.0625 17.2697 35.9848 17.3958 35.9364C17.5219 35.8879 17.6578 35.8701 17.7922 35.8845C17.5746 35.9698 17.3858 36.113 17.2918 36.3183C17.1312 36.6552 17.2188 37.1606 17.4927 37.3891C17.937 37.7824 18.6387 37.7226 18.8697 37.132C19.0691 36.7202 18.9341 36.2831 18.519 36.0402V36.0411Z" fill="#371A45"/>
    <path d="M16.4207 32.4271C16.9267 32.8949 17.1574 33.5926 17.2591 34.2589L16.6984 34.2618L16.7253 34.032C16.7674 33.4861 16.7121 32.9061 16.4207 32.4271Z" fill="#371A45"/>
    <path d="M18.7148 37.1379C18.5677 37.5084 18.1549 37.5495 17.8981 37.4473C18.5834 37.2053 18.3264 36.1558 18.532 36.2432C18.7584 36.3394 18.8706 36.8124 18.7148 37.1379Z" fill="#2BC614"/>
    <path d="M13.9351 32.2794C14.2649 32.6151 14.4948 33.0419 14.6312 33.4921L14.073 33.5448C14.1271 33.1223 14.0863 32.6815 13.9359 32.2794H13.9351Z" fill="#371A45"/>
    <defs>
        <linearGradient id="paint0_linear_216_2584" x1="4.92505" y1="49.2499" x2="90.1777" y2="49.2499" gradientUnits="userSpaceOnUse">
            <stop stop-color="#62ED2E"/>
            <stop offset="1" stop-color="#2AA66A"/>
        </linearGradient>
        <clipPath id="clip0_216_2584">
            <rect width="141.594" height="34.4749" fill="white" transform="translate(4.92505 32.0125)"/>
        </clipPath>
    </defs>
</svg>
