<svg width="100" height="23" viewBox="0 0 100 23" fill="none" xmlns="http://www.w3.org/2000/svg">
    <g filter="url(#filter0_d_216_3224)">
        <path d="M69.5815 0.340076C69.3224 -0.113358 68.6776 -0.11336 68.4185 0.340076L66.5937 3.53341C66.4657 3.7574 66.2445 3.91025 65.9923 3.94893L62.5726 4.47342C61.9982 4.56151 61.7968 5.29791 62.2441 5.67423L64.7916 7.81746C65.0274 8.01585 65.1383 8.32879 65.081 8.63427L64.4146 12.188C64.3093 12.7497 64.89 13.1862 65.3883 12.9198L68.6084 11.1981C68.8535 11.067 69.1465 11.067 69.3916 11.1981L72.6117 12.9198C73.11 13.1862 73.6907 12.7497 73.5854 12.188L72.919 8.63427C72.8617 8.32879 72.9726 8.01585 73.2084 7.81746L75.7559 5.67423C76.2032 5.29791 76.0018 4.56151 75.4274 4.47342L72.0077 3.94893C71.7555 3.91025 71.5343 3.7574 71.4063 3.53341L69.5815 0.340076Z" fill="#62ED2E"/>
        <path d="M88.5815 0.340076C88.3224 -0.113358 87.6776 -0.11336 87.4185 0.340076L85.5937 3.53341C85.4657 3.7574 85.2445 3.91025 84.9923 3.94893L81.5726 4.47342C80.9982 4.56151 80.7968 5.29791 81.2441 5.67423L83.7916 7.81746C84.0274 8.01585 84.1383 8.32879 84.081 8.63427L83.4146 12.188C83.3093 12.7497 83.89 13.1862 84.3883 12.9198L87.6084 11.1981C87.8535 11.067 88.1465 11.067 88.3916 11.1981L91.6117 12.9198C92.11 13.1862 92.6907 12.7497 92.5854 12.188L91.919 8.63427C91.8617 8.32879 91.9726 8.01585 92.2084 7.81746L94.7559 5.67423C95.2032 5.29791 95.0018 4.56151 94.4274 4.47342L91.0077 3.94893C90.7555 3.91025 90.5343 3.7574 90.4063 3.53341L88.5815 0.340076Z" fill="#62ED2E"/>
        <path d="M50.5815 0.340076C50.3224 -0.113358 49.6776 -0.11336 49.4185 0.340076L47.5937 3.53341C47.4657 3.7574 47.2445 3.91025 46.9923 3.94893L43.5726 4.47342C42.9982 4.56151 42.7968 5.29791 43.2441 5.67423L45.7916 7.81746C46.0274 8.01585 46.1383 8.32879 46.081 8.63427L45.4146 12.188C45.3093 12.7497 45.89 13.1862 46.3883 12.9198L49.6084 11.1981C49.8535 11.067 50.1465 11.067 50.3916 11.1981L53.6117 12.9198C54.11 13.1862 54.6907 12.7497 54.5854 12.188L53.919 8.63427C53.8617 8.32879 53.9726 8.01585 54.2084 7.81746L56.7559 5.67423C57.2032 5.29791 57.0018 4.56151 56.4274 4.47342L53.0077 3.94893C52.7555 3.91025 52.5343 3.7574 52.4063 3.53341L50.5815 0.340076Z" fill="#62ED2E"/>
        <path d="M31.5815 0.340076C31.3224 -0.113358 30.6776 -0.11336 30.4185 0.340076L28.5937 3.53341C28.4657 3.7574 28.2445 3.91025 27.9923 3.94893L24.5726 4.47342C23.9982 4.56151 23.7968 5.29791 24.2441 5.67423L26.7916 7.81746C27.0274 8.01585 27.1383 8.32879 27.081 8.63427L26.4146 12.188C26.3093 12.7497 26.89 13.1862 27.3883 12.9198L30.6084 11.1981C30.8535 11.067 31.1465 11.067 31.3916 11.1981L34.6117 12.9198C35.11 13.1862 35.6907 12.7497 35.5854 12.188L34.919 8.63427C34.8617 8.32879 34.9726 8.01585 35.2084 7.81746L37.7559 5.67423C38.2032 5.29791 38.0018 4.56151 37.4274 4.47342L34.0077 3.94893C33.7555 3.91025 33.5343 3.7574 33.4063 3.53341L31.5815 0.340076Z" fill="#62ED2E"/>
        <path d="M12.5815 0.340076C12.3224 -0.113358 11.6776 -0.11336 11.4185 0.340076L9.59371 3.53341C9.46572 3.7574 9.24448 3.91025 8.99232 3.94893L5.5726 4.47342C4.99823 4.56151 4.79676 5.29791 5.24407 5.67423L7.79162 7.81746C8.02743 8.01585 8.13831 8.32879 8.08103 8.63427L7.41463 12.188C7.30929 12.7497 7.89004 13.1862 8.38835 12.9198L11.6084 11.1981C11.8535 11.067 12.1465 11.067 12.3916 11.1981L15.6117 12.9198C16.11 13.1862 16.6907 12.7497 16.5854 12.188L15.919 8.63427C15.8617 8.32879 15.9726 8.01585 16.2084 7.81746L18.7559 5.67423C19.2032 5.29791 19.0018 4.56151 18.4274 4.47342L15.0077 3.94893C14.7555 3.91025 14.5343 3.7574 14.4063 3.53341L12.5815 0.340076Z" fill="#62ED2E"/>
        <path d="M88 0.285137C88 0.107671 87.8614 -0.0490794 87.6999 0.0143799C87.5659 0.0670824 87.4458 0.165535 87.3643 0.309737L85.555 3.51072C85.4281 3.73525 85.2087 3.88847 84.9586 3.92724L81.5678 4.45299C80.9982 4.54129 80.7985 5.27945 81.242 5.65667L83.7681 7.80504C84.0019 8.00391 84.1118 8.3176 84.055 8.62381L83.3943 12.186C83.2898 12.7491 83.8657 13.1867 84.3598 12.9196L87.5527 11.1937C87.5839 11.1769 87.616 11.1621 87.6486 11.1496C87.8297 11.0799 88 10.9286 88 10.73V0.285137Z" fill="#62ED2E"/>
    </g>
    <defs>
        <filter id="filter0_d_216_3224" x="0" y="0" width="100" height="23" filterUnits="userSpaceOnUse" color-interpolation-filters="sRGB">
            <feFlood flood-opacity="0" result="BackgroundImageFix"/>
            <feColorMatrix in="SourceAlpha" type="matrix" values="0 0 0 0 0 0 0 0 0 0 0 0 0 0 0 0 0 0 127 0" result="hardAlpha"/>
            <feOffset dy="5"/>
            <feGaussianBlur stdDeviation="2.5"/>
            <feComposite in2="hardAlpha" operator="out"/>
            <feColorMatrix type="matrix" values="0 0 0 0 0 0 0 0 0 0 0 0 0 0 0 0 0 0 0.36 0"/>
            <feBlend mode="normal" in2="BackgroundImageFix" result="effect1_dropShadow_216_3224"/>
            <feBlend mode="normal" in="SourceGraphic" in2="effect1_dropShadow_216_3224" result="shape"/>
        </filter>
    </defs>
</svg>
