<svg width="350" height="350" viewBox="0 0 350 350" fill="none" xmlns="http://www.w3.org/2000/svg">
<circle cx="175" cy="175" r="169" stroke="#782594" stroke-width="12"/>
<path d="M103.199 228.089C98.2967 232.949 98.2628 240.864 103.123 245.766C107.984 250.669 115.898 250.703 120.801 245.842L103.199 228.089ZM249.534 113.054C249.564 106.15 243.991 100.53 237.088 100.5L124.589 100.017C117.685 99.9877 112.065 105.56 112.035 112.464C112.006 119.367 117.578 124.987 124.482 125.017L224.481 125.446L224.051 225.445C224.022 232.349 229.594 237.969 236.498 237.999C243.401 238.029 249.022 232.456 249.051 225.553L249.534 113.054ZM120.801 245.842L245.835 121.877L228.233 104.123L103.199 228.089L120.801 245.842Z" fill="#782594"/>
</svg>
